ISO-10303-21;
HEADER;
/* Generated by software containing ST-Developer
 * from STEP Tools, Inc. (www.steptools.com) 
 */

FILE_DESCRIPTION(
/* description */ (''),
/* implementation_level */ '2;1');

FILE_NAME(
/* name */ 'IR_TOP_ENCLOUSER.step',
/* time_stamp */ '2026-05-09T09:49:28+05:30',
/* author */ (''),
/* organization */ (''),
/* preprocessor_version */ 'ST-DEVELOPER v20.1',
/* originating_system */ 'Autodesk Translation Framework v15.8.0.0',
/* authorisation */ '');

FILE_SCHEMA (('AUTOMOTIVE_DESIGN { 1 0 10303 214 3 1 1 }'));
ENDSEC;

DATA;
#10=MECHANICAL_DESIGN_GEOMETRIC_PRESENTATION_REPRESENTATION('',(#13),#1019);
#11=SHAPE_REPRESENTATION_RELATIONSHIP('SRR','None',#1026,#12);
#12=ADVANCED_BREP_SHAPE_REPRESENTATION('',(#14),#1018);
#13=STYLED_ITEM('',(#1035),#14);
#14=MANIFOLD_SOLID_BREP('Body3',#600);
#15=FACE_BOUND('',#95,.T.);
#16=FACE_BOUND('',#107,.T.);
#17=FACE_BOUND('',#108,.T.);
#18=CYLINDRICAL_SURFACE('',#621,1.6);
#19=CYLINDRICAL_SURFACE('',#632,1.6);
#20=CIRCLE('',#616,1.);
#21=CIRCLE('',#617,1.6);
#22=CIRCLE('',#618,1.6);
#23=CIRCLE('',#619,2.6);
#24=CIRCLE('',#622,1.6);
#25=CIRCLE('',#627,2.6);
#26=CIRCLE('',#628,1.);
#27=CIRCLE('',#629,1.6);
#28=CIRCLE('',#630,1.6);
#29=CIRCLE('',#633,1.6);
#30=TOROIDAL_SURFACE('',#615,2.6,1.);
#31=TOROIDAL_SURFACE('',#626,2.6,1.);
#32=PLANE('',#614);
#33=PLANE('',#620);
#34=PLANE('',#623);
#35=PLANE('',#624);
#36=PLANE('',#625);
#37=PLANE('',#631);
#38=PLANE('',#634);
#39=PLANE('',#635);
#40=PLANE('',#636);
#41=PLANE('',#637);
#42=PLANE('',#638);
#43=PLANE('',#639);
#44=PLANE('',#640);
#45=PLANE('',#641);
#46=PLANE('',#642);
#47=PLANE('',#643);
#48=PLANE('',#644);
#49=PLANE('',#645);
#50=PLANE('',#646);
#51=PLANE('',#647);
#52=PLANE('',#648);
#53=PLANE('',#649);
#54=PLANE('',#650);
#55=PLANE('',#651);
#56=FACE_OUTER_BOUND('',#85,.T.);
#57=FACE_OUTER_BOUND('',#86,.T.);
#58=FACE_OUTER_BOUND('',#87,.T.);
#59=FACE_OUTER_BOUND('',#88,.T.);
#60=FACE_OUTER_BOUND('',#89,.T.);
#61=FACE_OUTER_BOUND('',#90,.T.);
#62=FACE_OUTER_BOUND('',#91,.T.);
#63=FACE_OUTER_BOUND('',#92,.T.);
#64=FACE_OUTER_BOUND('',#93,.T.);
#65=FACE_OUTER_BOUND('',#94,.T.);
#66=FACE_OUTER_BOUND('',#96,.T.);
#67=FACE_OUTER_BOUND('',#97,.T.);
#68=FACE_OUTER_BOUND('',#98,.T.);
#69=FACE_OUTER_BOUND('',#99,.T.);
#70=FACE_OUTER_BOUND('',#100,.T.);
#71=FACE_OUTER_BOUND('',#101,.T.);
#72=FACE_OUTER_BOUND('',#102,.T.);
#73=FACE_OUTER_BOUND('',#103,.T.);
#74=FACE_OUTER_BOUND('',#104,.T.);
#75=FACE_OUTER_BOUND('',#105,.T.);
#76=FACE_OUTER_BOUND('',#106,.T.);
#77=FACE_OUTER_BOUND('',#109,.T.);
#78=FACE_OUTER_BOUND('',#110,.T.);
#79=FACE_OUTER_BOUND('',#111,.T.);
#80=FACE_OUTER_BOUND('',#112,.T.);
#81=FACE_OUTER_BOUND('',#113,.T.);
#82=FACE_OUTER_BOUND('',#114,.T.);
#83=FACE_OUTER_BOUND('',#115,.T.);
#84=FACE_OUTER_BOUND('',#116,.T.);
#85=EDGE_LOOP('',(#402,#403,#404,#405,#406));
#86=EDGE_LOOP('',(#407,#408,#409,#410,#411,#412));
#87=EDGE_LOOP('',(#413,#414,#415,#416,#417,#418,#419));
#88=EDGE_LOOP('',(#420,#421,#422,#423,#424,#425,#426,#427));
#89=EDGE_LOOP('',(#428,#429,#430,#431,#432));
#90=EDGE_LOOP('',(#433,#434,#435,#436));
#91=EDGE_LOOP('',(#437,#438,#439,#440));
#92=EDGE_LOOP('',(#441,#442,#443,#444,#445,#446,#447,#448));
#93=EDGE_LOOP('',(#449,#450,#451,#452,#453));
#94=EDGE_LOOP('',(#454,#455,#456,#457));
#95=EDGE_LOOP('',(#458));
#96=EDGE_LOOP('',(#459,#460,#461,#462,#463));
#97=EDGE_LOOP('',(#464,#465,#466,#467));
#98=EDGE_LOOP('',(#468,#469,#470,#471));
#99=EDGE_LOOP('',(#472,#473,#474,#475,#476,#477,#478,#479));
#100=EDGE_LOOP('',(#480,#481,#482,#483));
#101=EDGE_LOOP('',(#484,#485,#486,#487));
#102=EDGE_LOOP('',(#488,#489,#490,#491,#492,#493,#494,#495));
#103=EDGE_LOOP('',(#496,#497,#498,#499));
#104=EDGE_LOOP('',(#500,#501,#502,#503));
#105=EDGE_LOOP('',(#504,#505,#506,#507,#508,#509,#510,#511));
#106=EDGE_LOOP('',(#512,#513,#514,#515,#516,#517,#518,#519,#520,#521,#522,
#523,#524,#525,#526,#527,#528,#529,#530,#531));
#107=EDGE_LOOP('',(#532));
#108=EDGE_LOOP('',(#533));
#109=EDGE_LOOP('',(#534,#535,#536,#537));
#110=EDGE_LOOP('',(#538,#539,#540,#541));
#111=EDGE_LOOP('',(#542,#543,#544,#545,#546,#547));
#112=EDGE_LOOP('',(#548,#549,#550,#551,#552,#553));
#113=EDGE_LOOP('',(#554,#555,#556,#557));
#114=EDGE_LOOP('',(#558,#559,#560,#561));
#115=EDGE_LOOP('',(#562,#563,#564,#565));
#116=EDGE_LOOP('',(#566,#567,#568,#569));
#117=LINE('',#834,#188);
#118=LINE('',#850,#189);
#119=LINE('',#860,#190);
#120=LINE('',#862,#191);
#121=LINE('',#864,#192);
#122=LINE('',#866,#193);
#123=LINE('',#867,#194);
#124=LINE('',#877,#195);
#125=LINE('',#879,#196);
#126=LINE('',#880,#197);
#127=LINE('',#883,#198);
#128=LINE('',#887,#199);
#129=LINE('',#888,#200);
#130=LINE('',#891,#201);
#131=LINE('',#892,#202);
#132=LINE('',#895,#203);
#133=LINE('',#897,#204);
#134=LINE('',#899,#205);
#135=LINE('',#901,#206);
#136=LINE('',#902,#207);
#137=LINE('',#914,#208);
#138=LINE('',#916,#209);
#139=LINE('',#918,#210);
#140=LINE('',#919,#211);
#141=LINE('',#922,#212);
#142=LINE('',#926,#213);
#143=LINE('',#928,#214);
#144=LINE('',#929,#215);
#145=LINE('',#932,#216);
#146=LINE('',#934,#217);
#147=LINE('',#935,#218);
#148=LINE('',#938,#219);
#149=LINE('',#940,#220);
#150=LINE('',#942,#221);
#151=LINE('',#944,#222);
#152=LINE('',#945,#223);
#153=LINE('',#949,#224);
#154=LINE('',#951,#225);
#155=LINE('',#953,#226);
#156=LINE('',#954,#227);
#157=LINE('',#957,#228);
#158=LINE('',#959,#229);
#159=LINE('',#960,#230);
#160=LINE('',#963,#231);
#161=LINE('',#965,#232);
#162=LINE('',#967,#233);
#163=LINE('',#969,#234);
#164=LINE('',#971,#235);
#165=LINE('',#972,#236);
#166=LINE('',#975,#237);
#167=LINE('',#976,#238);
#168=LINE('',#978,#239);
#169=LINE('',#979,#240);
#170=LINE('',#982,#241);
#171=LINE('',#984,#242);
#172=LINE('',#986,#243);
#173=LINE('',#988,#244);
#174=LINE('',#989,#245);
#175=LINE('',#992,#246);
#176=LINE('',#994,#247);
#177=LINE('',#995,#248);
#178=LINE('',#996,#249);
#179=LINE('',#998,#250);
#180=LINE('',#1000,#251);
#181=LINE('',#1001,#252);
#182=LINE('',#1004,#253);
#183=LINE('',#1005,#254);
#184=LINE('',#1007,#255);
#185=LINE('',#1008,#256);
#186=LINE('',#1010,#257);
#187=LINE('',#1011,#258);
#188=VECTOR('',#654,10.);
#189=VECTOR('',#655,10.);
#190=VECTOR('',#658,10.);
#191=VECTOR('',#659,10.);
#192=VECTOR('',#660,10.);
#193=VECTOR('',#661,10.);
#194=VECTOR('',#662,10.);
#195=VECTOR('',#675,10.);
#196=VECTOR('',#676,10.);
#197=VECTOR('',#677,10.);
#198=VECTOR('',#680,1.6);
#199=VECTOR('',#685,10.);
#200=VECTOR('',#686,10.);
#201=VECTOR('',#689,10.);
#202=VECTOR('',#690,10.);
#203=VECTOR('',#693,10.);
#204=VECTOR('',#694,10.);
#205=VECTOR('',#695,10.);
#206=VECTOR('',#696,10.);
#207=VECTOR('',#697,10.);
#208=VECTOR('',#710,10.);
#209=VECTOR('',#711,10.);
#210=VECTOR('',#712,10.);
#211=VECTOR('',#713,10.);
#212=VECTOR('',#716,1.6);
#213=VECTOR('',#721,10.);
#214=VECTOR('',#722,10.);
#215=VECTOR('',#723,10.);
#216=VECTOR('',#726,10.);
#217=VECTOR('',#727,10.);
#218=VECTOR('',#728,10.);
#219=VECTOR('',#731,10.);
#220=VECTOR('',#732,10.);
#221=VECTOR('',#733,10.);
#222=VECTOR('',#734,10.);
#223=VECTOR('',#735,10.);
#224=VECTOR('',#738,10.);
#225=VECTOR('',#739,10.);
#226=VECTOR('',#740,10.);
#227=VECTOR('',#741,10.);
#228=VECTOR('',#744,10.);
#229=VECTOR('',#745,10.);
#230=VECTOR('',#746,10.);
#231=VECTOR('',#749,10.);
#232=VECTOR('',#750,10.);
#233=VECTOR('',#751,10.);
#234=VECTOR('',#752,10.);
#235=VECTOR('',#753,10.);
#236=VECTOR('',#754,10.);
#237=VECTOR('',#757,10.);
#238=VECTOR('',#758,10.);
#239=VECTOR('',#761,10.);
#240=VECTOR('',#762,10.);
#241=VECTOR('',#765,10.);
#242=VECTOR('',#766,10.);
#243=VECTOR('',#767,10.);
#244=VECTOR('',#768,10.);
#245=VECTOR('',#769,10.);
#246=VECTOR('',#772,10.);
#247=VECTOR('',#773,10.);
#248=VECTOR('',#774,10.);
#249=VECTOR('',#775,10.);
#250=VECTOR('',#776,10.);
#251=VECTOR('',#777,10.);
#252=VECTOR('',#778,10.);
#253=VECTOR('',#783,10.);
#254=VECTOR('',#784,10.);
#255=VECTOR('',#787,10.);
#256=VECTOR('',#788,10.);
#257=VECTOR('',#791,10.);
#258=VECTOR('',#792,10.);
#259=B_SPLINE_CURVE_WITH_KNOTS('',3,(#826,#827,#828,#829,#830,#831,#832),
 .UNSPECIFIED.,.F.,.F.,(4,3,4),(1.09162439459306,1.11118177563225,1.15754669373959),
 .UNSPECIFIED.);
#260=B_SPLINE_CURVE_WITH_KNOTS('',3,(#836,#837,#838,#839,#840,#841,#842,
#843,#844,#845,#846,#847,#848),.UNSPECIFIED.,.F.,.F.,(4,3,3,3,4),(-1.22346899288612,
-1.20391161184693,-1.15754669373959,-1.11118177563225,-1.09162439459306),
 .UNSPECIFIED.);
#261=B_SPLINE_CURVE_WITH_KNOTS('',3,(#851,#852,#853,#854,#855,#856,#857),
 .UNSPECIFIED.,.F.,.F.,(4,3,4),(1.15754669373959,1.20391161184693,1.22346899288612),
 .UNSPECIFIED.);
#262=VERTEX_POINT('',#824);
#263=VERTEX_POINT('',#825);
#264=VERTEX_POINT('',#833);
#265=VERTEX_POINT('',#835);
#266=VERTEX_POINT('',#849);
#267=VERTEX_POINT('',#859);
#268=VERTEX_POINT('',#861);
#269=VERTEX_POINT('',#863);
#270=VERTEX_POINT('',#865);
#271=VERTEX_POINT('',#869);
#272=VERTEX_POINT('',#871);
#273=VERTEX_POINT('',#876);
#274=VERTEX_POINT('',#878);
#275=VERTEX_POINT('',#882);
#276=VERTEX_POINT('',#886);
#277=VERTEX_POINT('',#890);
#278=VERTEX_POINT('',#894);
#279=VERTEX_POINT('',#896);
#280=VERTEX_POINT('',#898);
#281=VERTEX_POINT('',#900);
#282=VERTEX_POINT('',#904);
#283=VERTEX_POINT('',#906);
#284=VERTEX_POINT('',#908);
#285=VERTEX_POINT('',#912);
#286=VERTEX_POINT('',#913);
#287=VERTEX_POINT('',#915);
#288=VERTEX_POINT('',#917);
#289=VERTEX_POINT('',#921);
#290=VERTEX_POINT('',#925);
#291=VERTEX_POINT('',#927);
#292=VERTEX_POINT('',#931);
#293=VERTEX_POINT('',#933);
#294=VERTEX_POINT('',#937);
#295=VERTEX_POINT('',#939);
#296=VERTEX_POINT('',#941);
#297=VERTEX_POINT('',#943);
#298=VERTEX_POINT('',#947);
#299=VERTEX_POINT('',#948);
#300=VERTEX_POINT('',#950);
#301=VERTEX_POINT('',#952);
#302=VERTEX_POINT('',#956);
#303=VERTEX_POINT('',#958);
#304=VERTEX_POINT('',#962);
#305=VERTEX_POINT('',#964);
#306=VERTEX_POINT('',#966);
#307=VERTEX_POINT('',#968);
#308=VERTEX_POINT('',#970);
#309=VERTEX_POINT('',#974);
#310=VERTEX_POINT('',#981);
#311=VERTEX_POINT('',#983);
#312=VERTEX_POINT('',#985);
#313=VERTEX_POINT('',#987);
#314=VERTEX_POINT('',#991);
#315=VERTEX_POINT('',#993);
#316=VERTEX_POINT('',#997);
#317=VERTEX_POINT('',#999);
#318=EDGE_CURVE('',#262,#263,#259,.T.);
#319=EDGE_CURVE('',#262,#264,#117,.T.);
#320=EDGE_CURVE('',#265,#264,#260,.T.);
#321=EDGE_CURVE('',#266,#265,#118,.T.);
#322=EDGE_CURVE('',#263,#266,#261,.T.);
#323=EDGE_CURVE('',#264,#267,#119,.T.);
#324=EDGE_CURVE('',#267,#268,#120,.T.);
#325=EDGE_CURVE('',#268,#269,#121,.T.);
#326=EDGE_CURVE('',#269,#270,#122,.T.);
#327=EDGE_CURVE('',#270,#265,#123,.T.);
#328=EDGE_CURVE('',#263,#271,#20,.T.);
#329=EDGE_CURVE('',#271,#272,#21,.T.);
#330=EDGE_CURVE('',#272,#271,#22,.T.);
#331=EDGE_CURVE('',#266,#262,#23,.T.);
#332=EDGE_CURVE('',#273,#270,#124,.T.);
#333=EDGE_CURVE('',#274,#273,#125,.T.);
#334=EDGE_CURVE('',#274,#267,#126,.T.);
#335=EDGE_CURVE('',#272,#275,#127,.T.);
#336=EDGE_CURVE('',#275,#275,#24,.T.);
#337=EDGE_CURVE('',#276,#274,#128,.T.);
#338=EDGE_CURVE('',#276,#268,#129,.T.);
#339=EDGE_CURVE('',#277,#269,#130,.T.);
#340=EDGE_CURVE('',#273,#277,#131,.T.);
#341=EDGE_CURVE('',#277,#278,#132,.T.);
#342=EDGE_CURVE('',#278,#279,#133,.T.);
#343=EDGE_CURVE('',#280,#279,#134,.T.);
#344=EDGE_CURVE('',#281,#280,#135,.T.);
#345=EDGE_CURVE('',#281,#276,#136,.T.);
#346=EDGE_CURVE('',#282,#282,#25,.T.);
#347=EDGE_CURVE('',#282,#283,#26,.T.);
#348=EDGE_CURVE('',#283,#284,#27,.T.);
#349=EDGE_CURVE('',#284,#283,#28,.T.);
#350=EDGE_CURVE('',#285,#286,#137,.T.);
#351=EDGE_CURVE('',#287,#285,#138,.T.);
#352=EDGE_CURVE('',#288,#287,#139,.T.);
#353=EDGE_CURVE('',#286,#288,#140,.T.);
#354=EDGE_CURVE('',#284,#289,#141,.T.);
#355=EDGE_CURVE('',#289,#289,#29,.T.);
#356=EDGE_CURVE('',#290,#288,#142,.T.);
#357=EDGE_CURVE('',#290,#291,#143,.T.);
#358=EDGE_CURVE('',#291,#286,#144,.T.);
#359=EDGE_CURVE('',#285,#292,#145,.T.);
#360=EDGE_CURVE('',#292,#293,#146,.T.);
#361=EDGE_CURVE('',#287,#293,#147,.T.);
#362=EDGE_CURVE('',#293,#294,#148,.T.);
#363=EDGE_CURVE('',#295,#294,#149,.T.);
#364=EDGE_CURVE('',#296,#295,#150,.T.);
#365=EDGE_CURVE('',#297,#296,#151,.T.);
#366=EDGE_CURVE('',#297,#290,#152,.T.);
#367=EDGE_CURVE('',#298,#299,#153,.T.);
#368=EDGE_CURVE('',#300,#298,#154,.T.);
#369=EDGE_CURVE('',#301,#300,#155,.T.);
#370=EDGE_CURVE('',#299,#301,#156,.T.);
#371=EDGE_CURVE('',#300,#302,#157,.T.);
#372=EDGE_CURVE('',#303,#302,#158,.T.);
#373=EDGE_CURVE('',#303,#301,#159,.T.);
#374=EDGE_CURVE('',#304,#298,#160,.T.);
#375=EDGE_CURVE('',#305,#304,#161,.T.);
#376=EDGE_CURVE('',#305,#306,#162,.T.);
#377=EDGE_CURVE('',#306,#307,#163,.T.);
#378=EDGE_CURVE('',#307,#308,#164,.T.);
#379=EDGE_CURVE('',#302,#308,#165,.T.);
#380=EDGE_CURVE('',#299,#309,#166,.T.);
#381=EDGE_CURVE('',#309,#304,#167,.T.);
#382=EDGE_CURVE('',#294,#281,#168,.T.);
#383=EDGE_CURVE('',#280,#295,#169,.T.);
#384=EDGE_CURVE('',#279,#310,#170,.T.);
#385=EDGE_CURVE('',#310,#311,#171,.T.);
#386=EDGE_CURVE('',#311,#312,#172,.T.);
#387=EDGE_CURVE('',#312,#313,#173,.T.);
#388=EDGE_CURVE('',#313,#296,#174,.T.);
#389=EDGE_CURVE('',#314,#303,#175,.T.);
#390=EDGE_CURVE('',#314,#315,#176,.T.);
#391=EDGE_CURVE('',#278,#315,#177,.T.);
#392=EDGE_CURVE('',#291,#292,#178,.T.);
#393=EDGE_CURVE('',#316,#297,#179,.T.);
#394=EDGE_CURVE('',#316,#317,#180,.T.);
#395=EDGE_CURVE('',#309,#317,#181,.T.);
#396=EDGE_CURVE('',#307,#311,#182,.T.);
#397=EDGE_CURVE('',#312,#306,#183,.T.);
#398=EDGE_CURVE('',#317,#305,#184,.T.);
#399=EDGE_CURVE('',#313,#316,#185,.T.);
#400=EDGE_CURVE('',#308,#314,#186,.T.);
#401=EDGE_CURVE('',#315,#310,#187,.T.);
#402=ORIENTED_EDGE('',*,*,#318,.F.);
#403=ORIENTED_EDGE('',*,*,#319,.T.);
#404=ORIENTED_EDGE('',*,*,#320,.F.);
#405=ORIENTED_EDGE('',*,*,#321,.F.);
#406=ORIENTED_EDGE('',*,*,#322,.F.);
#407=ORIENTED_EDGE('',*,*,#320,.T.);
#408=ORIENTED_EDGE('',*,*,#323,.T.);
#409=ORIENTED_EDGE('',*,*,#324,.T.);
#410=ORIENTED_EDGE('',*,*,#325,.T.);
#411=ORIENTED_EDGE('',*,*,#326,.T.);
#412=ORIENTED_EDGE('',*,*,#327,.T.);
#413=ORIENTED_EDGE('',*,*,#318,.T.);
#414=ORIENTED_EDGE('',*,*,#328,.T.);
#415=ORIENTED_EDGE('',*,*,#329,.T.);
#416=ORIENTED_EDGE('',*,*,#330,.T.);
#417=ORIENTED_EDGE('',*,*,#328,.F.);
#418=ORIENTED_EDGE('',*,*,#322,.T.);
#419=ORIENTED_EDGE('',*,*,#331,.T.);
#420=ORIENTED_EDGE('',*,*,#331,.F.);
#421=ORIENTED_EDGE('',*,*,#321,.T.);
#422=ORIENTED_EDGE('',*,*,#327,.F.);
#423=ORIENTED_EDGE('',*,*,#332,.F.);
#424=ORIENTED_EDGE('',*,*,#333,.F.);
#425=ORIENTED_EDGE('',*,*,#334,.T.);
#426=ORIENTED_EDGE('',*,*,#323,.F.);
#427=ORIENTED_EDGE('',*,*,#319,.F.);
#428=ORIENTED_EDGE('',*,*,#329,.F.);
#429=ORIENTED_EDGE('',*,*,#330,.F.);
#430=ORIENTED_EDGE('',*,*,#335,.T.);
#431=ORIENTED_EDGE('',*,*,#336,.F.);
#432=ORIENTED_EDGE('',*,*,#335,.F.);
#433=ORIENTED_EDGE('',*,*,#337,.F.);
#434=ORIENTED_EDGE('',*,*,#338,.T.);
#435=ORIENTED_EDGE('',*,*,#324,.F.);
#436=ORIENTED_EDGE('',*,*,#334,.F.);
#437=ORIENTED_EDGE('',*,*,#339,.F.);
#438=ORIENTED_EDGE('',*,*,#340,.F.);
#439=ORIENTED_EDGE('',*,*,#332,.T.);
#440=ORIENTED_EDGE('',*,*,#326,.F.);
#441=ORIENTED_EDGE('',*,*,#333,.T.);
#442=ORIENTED_EDGE('',*,*,#340,.T.);
#443=ORIENTED_EDGE('',*,*,#341,.T.);
#444=ORIENTED_EDGE('',*,*,#342,.T.);
#445=ORIENTED_EDGE('',*,*,#343,.F.);
#446=ORIENTED_EDGE('',*,*,#344,.F.);
#447=ORIENTED_EDGE('',*,*,#345,.T.);
#448=ORIENTED_EDGE('',*,*,#337,.T.);
#449=ORIENTED_EDGE('',*,*,#346,.T.);
#450=ORIENTED_EDGE('',*,*,#347,.T.);
#451=ORIENTED_EDGE('',*,*,#348,.T.);
#452=ORIENTED_EDGE('',*,*,#349,.T.);
#453=ORIENTED_EDGE('',*,*,#347,.F.);
#454=ORIENTED_EDGE('',*,*,#350,.F.);
#455=ORIENTED_EDGE('',*,*,#351,.F.);
#456=ORIENTED_EDGE('',*,*,#352,.F.);
#457=ORIENTED_EDGE('',*,*,#353,.F.);
#458=ORIENTED_EDGE('',*,*,#346,.F.);
#459=ORIENTED_EDGE('',*,*,#348,.F.);
#460=ORIENTED_EDGE('',*,*,#349,.F.);
#461=ORIENTED_EDGE('',*,*,#354,.T.);
#462=ORIENTED_EDGE('',*,*,#355,.F.);
#463=ORIENTED_EDGE('',*,*,#354,.F.);
#464=ORIENTED_EDGE('',*,*,#356,.F.);
#465=ORIENTED_EDGE('',*,*,#357,.T.);
#466=ORIENTED_EDGE('',*,*,#358,.T.);
#467=ORIENTED_EDGE('',*,*,#353,.T.);
#468=ORIENTED_EDGE('',*,*,#359,.T.);
#469=ORIENTED_EDGE('',*,*,#360,.T.);
#470=ORIENTED_EDGE('',*,*,#361,.F.);
#471=ORIENTED_EDGE('',*,*,#351,.T.);
#472=ORIENTED_EDGE('',*,*,#352,.T.);
#473=ORIENTED_EDGE('',*,*,#361,.T.);
#474=ORIENTED_EDGE('',*,*,#362,.T.);
#475=ORIENTED_EDGE('',*,*,#363,.F.);
#476=ORIENTED_EDGE('',*,*,#364,.F.);
#477=ORIENTED_EDGE('',*,*,#365,.F.);
#478=ORIENTED_EDGE('',*,*,#366,.T.);
#479=ORIENTED_EDGE('',*,*,#356,.T.);
#480=ORIENTED_EDGE('',*,*,#367,.F.);
#481=ORIENTED_EDGE('',*,*,#368,.F.);
#482=ORIENTED_EDGE('',*,*,#369,.F.);
#483=ORIENTED_EDGE('',*,*,#370,.F.);
#484=ORIENTED_EDGE('',*,*,#369,.T.);
#485=ORIENTED_EDGE('',*,*,#371,.T.);
#486=ORIENTED_EDGE('',*,*,#372,.F.);
#487=ORIENTED_EDGE('',*,*,#373,.T.);
#488=ORIENTED_EDGE('',*,*,#368,.T.);
#489=ORIENTED_EDGE('',*,*,#374,.F.);
#490=ORIENTED_EDGE('',*,*,#375,.F.);
#491=ORIENTED_EDGE('',*,*,#376,.T.);
#492=ORIENTED_EDGE('',*,*,#377,.T.);
#493=ORIENTED_EDGE('',*,*,#378,.T.);
#494=ORIENTED_EDGE('',*,*,#379,.F.);
#495=ORIENTED_EDGE('',*,*,#371,.F.);
#496=ORIENTED_EDGE('',*,*,#367,.T.);
#497=ORIENTED_EDGE('',*,*,#380,.T.);
#498=ORIENTED_EDGE('',*,*,#381,.T.);
#499=ORIENTED_EDGE('',*,*,#374,.T.);
#500=ORIENTED_EDGE('',*,*,#382,.T.);
#501=ORIENTED_EDGE('',*,*,#344,.T.);
#502=ORIENTED_EDGE('',*,*,#383,.T.);
#503=ORIENTED_EDGE('',*,*,#363,.T.);
#504=ORIENTED_EDGE('',*,*,#343,.T.);
#505=ORIENTED_EDGE('',*,*,#384,.T.);
#506=ORIENTED_EDGE('',*,*,#385,.T.);
#507=ORIENTED_EDGE('',*,*,#386,.T.);
#508=ORIENTED_EDGE('',*,*,#387,.T.);
#509=ORIENTED_EDGE('',*,*,#388,.T.);
#510=ORIENTED_EDGE('',*,*,#364,.T.);
#511=ORIENTED_EDGE('',*,*,#383,.F.);
#512=ORIENTED_EDGE('',*,*,#373,.F.);
#513=ORIENTED_EDGE('',*,*,#389,.F.);
#514=ORIENTED_EDGE('',*,*,#390,.T.);
#515=ORIENTED_EDGE('',*,*,#391,.F.);
#516=ORIENTED_EDGE('',*,*,#341,.F.);
#517=ORIENTED_EDGE('',*,*,#339,.T.);
#518=ORIENTED_EDGE('',*,*,#325,.F.);
#519=ORIENTED_EDGE('',*,*,#338,.F.);
#520=ORIENTED_EDGE('',*,*,#345,.F.);
#521=ORIENTED_EDGE('',*,*,#382,.F.);
#522=ORIENTED_EDGE('',*,*,#362,.F.);
#523=ORIENTED_EDGE('',*,*,#360,.F.);
#524=ORIENTED_EDGE('',*,*,#392,.F.);
#525=ORIENTED_EDGE('',*,*,#357,.F.);
#526=ORIENTED_EDGE('',*,*,#366,.F.);
#527=ORIENTED_EDGE('',*,*,#393,.F.);
#528=ORIENTED_EDGE('',*,*,#394,.T.);
#529=ORIENTED_EDGE('',*,*,#395,.F.);
#530=ORIENTED_EDGE('',*,*,#380,.F.);
#531=ORIENTED_EDGE('',*,*,#370,.T.);
#532=ORIENTED_EDGE('',*,*,#355,.T.);
#533=ORIENTED_EDGE('',*,*,#336,.T.);
#534=ORIENTED_EDGE('',*,*,#392,.T.);
#535=ORIENTED_EDGE('',*,*,#359,.F.);
#536=ORIENTED_EDGE('',*,*,#350,.T.);
#537=ORIENTED_EDGE('',*,*,#358,.F.);
#538=ORIENTED_EDGE('',*,*,#386,.F.);
#539=ORIENTED_EDGE('',*,*,#396,.F.);
#540=ORIENTED_EDGE('',*,*,#377,.F.);
#541=ORIENTED_EDGE('',*,*,#397,.F.);
#542=ORIENTED_EDGE('',*,*,#398,.F.);
#543=ORIENTED_EDGE('',*,*,#394,.F.);
#544=ORIENTED_EDGE('',*,*,#399,.F.);
#545=ORIENTED_EDGE('',*,*,#387,.F.);
#546=ORIENTED_EDGE('',*,*,#397,.T.);
#547=ORIENTED_EDGE('',*,*,#376,.F.);
#548=ORIENTED_EDGE('',*,*,#400,.F.);
#549=ORIENTED_EDGE('',*,*,#378,.F.);
#550=ORIENTED_EDGE('',*,*,#396,.T.);
#551=ORIENTED_EDGE('',*,*,#385,.F.);
#552=ORIENTED_EDGE('',*,*,#401,.F.);
#553=ORIENTED_EDGE('',*,*,#390,.F.);
#554=ORIENTED_EDGE('',*,*,#399,.T.);
#555=ORIENTED_EDGE('',*,*,#393,.T.);
#556=ORIENTED_EDGE('',*,*,#365,.T.);
#557=ORIENTED_EDGE('',*,*,#388,.F.);
#558=ORIENTED_EDGE('',*,*,#398,.T.);
#559=ORIENTED_EDGE('',*,*,#375,.T.);
#560=ORIENTED_EDGE('',*,*,#381,.F.);
#561=ORIENTED_EDGE('',*,*,#395,.T.);
#562=ORIENTED_EDGE('',*,*,#400,.T.);
#563=ORIENTED_EDGE('',*,*,#389,.T.);
#564=ORIENTED_EDGE('',*,*,#372,.T.);
#565=ORIENTED_EDGE('',*,*,#379,.T.);
#566=ORIENTED_EDGE('',*,*,#401,.T.);
#567=ORIENTED_EDGE('',*,*,#384,.F.);
#568=ORIENTED_EDGE('',*,*,#342,.F.);
#569=ORIENTED_EDGE('',*,*,#391,.T.);
#570=B_SPLINE_SURFACE_WITH_KNOTS('',3,1,((#802,#803),(#804,#805),(#806,
#807),(#808,#809),(#810,#811),(#812,#813),(#814,#815),(#816,#817),(#818,
#819),(#820,#821),(#822,#823)),.UNSPECIFIED.,.F.,.F.,.F.,(4,2,3,2,4),(2,
2),(-1.22346899288612,-1.20391161184693,-1.15754669373959,-1.11118177563225,
-1.09162439459306),(0.,0.1),.UNSPECIFIED.);
#571=ADVANCED_FACE('',(#56),#570,.T.);
#572=ADVANCED_FACE('',(#57),#32,.T.);
#573=ADVANCED_FACE('',(#58),#30,.T.);
#574=ADVANCED_FACE('',(#59),#33,.F.);
#575=ADVANCED_FACE('',(#60),#18,.F.);
#576=ADVANCED_FACE('',(#61),#34,.T.);
#577=ADVANCED_FACE('',(#62),#35,.T.);
#578=ADVANCED_FACE('',(#63),#36,.T.);
#579=ADVANCED_FACE('',(#64),#31,.T.);
#580=ADVANCED_FACE('',(#65,#15),#37,.F.);
#581=ADVANCED_FACE('',(#66),#19,.F.);
#582=ADVANCED_FACE('',(#67),#38,.T.);
#583=ADVANCED_FACE('',(#68),#39,.T.);
#584=ADVANCED_FACE('',(#69),#40,.T.);
#585=ADVANCED_FACE('',(#70),#41,.T.);
#586=ADVANCED_FACE('',(#71),#42,.T.);
#587=ADVANCED_FACE('',(#72),#43,.T.);
#588=ADVANCED_FACE('',(#73),#44,.T.);
#589=ADVANCED_FACE('',(#74),#45,.T.);
#590=ADVANCED_FACE('',(#75),#46,.T.);
#591=ADVANCED_FACE('',(#76,#16,#17),#47,.F.);
#592=ADVANCED_FACE('',(#77),#48,.T.);
#593=ADVANCED_FACE('',(#78),#49,.F.);
#594=ADVANCED_FACE('',(#79),#50,.F.);
#595=ADVANCED_FACE('',(#80),#51,.F.);
#596=ADVANCED_FACE('',(#81),#52,.T.);
#597=ADVANCED_FACE('',(#82),#53,.T.);
#598=ADVANCED_FACE('',(#83),#54,.T.);
#599=ADVANCED_FACE('',(#84),#55,.T.);
#600=CLOSED_SHELL('',(#571,#572,#573,#574,#575,#576,#577,#578,#579,#580,
#581,#582,#583,#584,#585,#586,#587,#588,#589,#590,#591,#592,#593,#594,#595,
#596,#597,#598,#599));
#601=DERIVED_UNIT_ELEMENT(#603,1.);
#602=DERIVED_UNIT_ELEMENT(#1021,-3.);
#603=(
MASS_UNIT()
NAMED_UNIT(*)
SI_UNIT(.KILO.,.GRAM.)
);
#604=DERIVED_UNIT((#601,#602));
#605=MEASURE_REPRESENTATION_ITEM('density measure',
POSITIVE_RATIO_MEASURE(7850.),#604);
#606=PROPERTY_DEFINITION_REPRESENTATION(#611,#608);
#607=PROPERTY_DEFINITION_REPRESENTATION(#612,#609);
#608=REPRESENTATION('material name',(#610),#1018);
#609=REPRESENTATION('density',(#605),#1018);
#610=DESCRIPTIVE_REPRESENTATION_ITEM('Steel','Steel');
#611=PROPERTY_DEFINITION('material property','material name',#1028);
#612=PROPERTY_DEFINITION('material property','density of part',#1028);
#613=AXIS2_PLACEMENT_3D('',#801,#652,#653);
#614=AXIS2_PLACEMENT_3D('',#858,#656,#657);
#615=AXIS2_PLACEMENT_3D('',#868,#663,#664);
#616=AXIS2_PLACEMENT_3D('',#870,#665,#666);
#617=AXIS2_PLACEMENT_3D('',#872,#667,#668);
#618=AXIS2_PLACEMENT_3D('',#873,#669,#670);
#619=AXIS2_PLACEMENT_3D('',#874,#671,#672);
#620=AXIS2_PLACEMENT_3D('',#875,#673,#674);
#621=AXIS2_PLACEMENT_3D('',#881,#678,#679);
#622=AXIS2_PLACEMENT_3D('',#884,#681,#682);
#623=AXIS2_PLACEMENT_3D('',#885,#683,#684);
#624=AXIS2_PLACEMENT_3D('',#889,#687,#688);
#625=AXIS2_PLACEMENT_3D('',#893,#691,#692);
#626=AXIS2_PLACEMENT_3D('',#903,#698,#699);
#627=AXIS2_PLACEMENT_3D('',#905,#700,#701);
#628=AXIS2_PLACEMENT_3D('',#907,#702,#703);
#629=AXIS2_PLACEMENT_3D('',#909,#704,#705);
#630=AXIS2_PLACEMENT_3D('',#910,#706,#707);
#631=AXIS2_PLACEMENT_3D('',#911,#708,#709);
#632=AXIS2_PLACEMENT_3D('',#920,#714,#715);
#633=AXIS2_PLACEMENT_3D('',#923,#717,#718);
#634=AXIS2_PLACEMENT_3D('',#924,#719,#720);
#635=AXIS2_PLACEMENT_3D('',#930,#724,#725);
#636=AXIS2_PLACEMENT_3D('',#936,#729,#730);
#637=AXIS2_PLACEMENT_3D('',#946,#736,#737);
#638=AXIS2_PLACEMENT_3D('',#955,#742,#743);
#639=AXIS2_PLACEMENT_3D('',#961,#747,#748);
#640=AXIS2_PLACEMENT_3D('',#973,#755,#756);
#641=AXIS2_PLACEMENT_3D('',#977,#759,#760);
#642=AXIS2_PLACEMENT_3D('',#980,#763,#764);
#643=AXIS2_PLACEMENT_3D('',#990,#770,#771);
#644=AXIS2_PLACEMENT_3D('',#1002,#779,#780);
#645=AXIS2_PLACEMENT_3D('',#1003,#781,#782);
#646=AXIS2_PLACEMENT_3D('',#1006,#785,#786);
#647=AXIS2_PLACEMENT_3D('',#1009,#789,#790);
#648=AXIS2_PLACEMENT_3D('',#1012,#793,#794);
#649=AXIS2_PLACEMENT_3D('',#1013,#795,#796);
#650=AXIS2_PLACEMENT_3D('',#1014,#797,#798);
#651=AXIS2_PLACEMENT_3D('',#1015,#799,#800);
#652=DIRECTION('axis',(0.,0.,1.));
#653=DIRECTION('refdir',(1.,0.,0.));
#654=DIRECTION('',(1.,0.,0.));
#655=DIRECTION('',(1.,0.,0.));
#656=DIRECTION('center_axis',(1.,0.,0.));
#657=DIRECTION('ref_axis',(0.,-1.,0.));
#658=DIRECTION('',(0.,-1.,0.));
#659=DIRECTION('',(0.,0.,-1.));
#660=DIRECTION('',(0.,1.,0.));
#661=DIRECTION('',(0.,0.,1.));
#662=DIRECTION('',(0.,-1.,0.));
#663=DIRECTION('center_axis',(0.,0.,-1.));
#664=DIRECTION('ref_axis',(-1.,0.,0.));
#665=DIRECTION('center_axis',(0.,-1.,0.));
#666=DIRECTION('ref_axis',(1.,0.,0.));
#667=DIRECTION('center_axis',(0.,0.,-1.));
#668=DIRECTION('ref_axis',(-1.,0.,0.));
#669=DIRECTION('center_axis',(0.,0.,-1.));
#670=DIRECTION('ref_axis',(-1.,0.,0.));
#671=DIRECTION('center_axis',(0.,0.,1.));
#672=DIRECTION('ref_axis',(-1.,0.,0.));
#673=DIRECTION('center_axis',(0.,0.,-1.));
#674=DIRECTION('ref_axis',(-1.,0.,0.));
#675=DIRECTION('',(1.,0.,0.));
#676=DIRECTION('',(-1.09793273283964E-14,1.,0.));
#677=DIRECTION('',(1.,0.,0.));
#678=DIRECTION('center_axis',(0.,0.,-1.));
#679=DIRECTION('ref_axis',(1.,0.,0.));
#680=DIRECTION('',(0.,0.,-1.));
#681=DIRECTION('center_axis',(0.,0.,1.));
#682=DIRECTION('ref_axis',(1.,0.,0.));
#683=DIRECTION('center_axis',(0.,-1.,0.));
#684=DIRECTION('ref_axis',(0.,0.,-1.));
#685=DIRECTION('',(0.,0.,1.));
#686=DIRECTION('',(1.,0.,0.));
#687=DIRECTION('center_axis',(0.,1.,0.));
#688=DIRECTION('ref_axis',(0.,0.,1.));
#689=DIRECTION('',(1.,0.,0.));
#690=DIRECTION('',(0.,0.,-1.));
#691=DIRECTION('center_axis',(1.,1.09793273283964E-14,0.));
#692=DIRECTION('ref_axis',(-1.09793273283964E-14,1.,0.));
#693=DIRECTION('',(-1.09793273283964E-14,1.,0.));
#694=DIRECTION('',(0.,0.,1.));
#695=DIRECTION('',(-1.09793273283964E-14,1.,0.));
#696=DIRECTION('',(0.,0.,1.));
#697=DIRECTION('',(-1.09793273283964E-14,1.,0.));
#698=DIRECTION('center_axis',(0.,0.,-1.));
#699=DIRECTION('ref_axis',(-1.,0.,0.));
#700=DIRECTION('center_axis',(0.,0.,1.));
#701=DIRECTION('ref_axis',(-1.,0.,0.));
#702=DIRECTION('center_axis',(0.,-1.,0.));
#703=DIRECTION('ref_axis',(1.,0.,0.));
#704=DIRECTION('center_axis',(0.,0.,-1.));
#705=DIRECTION('ref_axis',(-1.,0.,0.));
#706=DIRECTION('center_axis',(0.,0.,-1.));
#707=DIRECTION('ref_axis',(-1.,0.,0.));
#708=DIRECTION('center_axis',(0.,0.,-1.));
#709=DIRECTION('ref_axis',(-1.,0.,0.));
#710=DIRECTION('',(0.,1.,0.));
#711=DIRECTION('',(-1.,0.,0.));
#712=DIRECTION('',(1.09793273283964E-14,-1.,0.));
#713=DIRECTION('',(1.,0.,0.));
#714=DIRECTION('center_axis',(0.,0.,-1.));
#715=DIRECTION('ref_axis',(1.,0.,0.));
#716=DIRECTION('',(0.,0.,-1.));
#717=DIRECTION('center_axis',(0.,0.,1.));
#718=DIRECTION('ref_axis',(1.,0.,0.));
#719=DIRECTION('center_axis',(0.,1.,0.));
#720=DIRECTION('ref_axis',(0.,0.,1.));
#721=DIRECTION('',(0.,0.,1.));
#722=DIRECTION('',(-1.,0.,0.));
#723=DIRECTION('',(0.,0.,1.));
#724=DIRECTION('center_axis',(0.,-1.,0.));
#725=DIRECTION('ref_axis',(0.,0.,-1.));
#726=DIRECTION('',(0.,0.,-1.));
#727=DIRECTION('',(1.,0.,0.));
#728=DIRECTION('',(0.,0.,-1.));
#729=DIRECTION('center_axis',(-1.,-1.09793273283964E-14,0.));
#730=DIRECTION('ref_axis',(1.09793273283964E-14,-1.,0.));
#731=DIRECTION('',(1.09793273283964E-14,-1.,0.));
#732=DIRECTION('',(0.,0.,-1.));
#733=DIRECTION('',(1.09793273283964E-14,-1.,0.));
#734=DIRECTION('',(0.,0.,1.));
#735=DIRECTION('',(1.09793273283964E-14,-1.,0.));
#736=DIRECTION('center_axis',(-1.10730905343191E-14,1.,0.));
#737=DIRECTION('ref_axis',(0.,0.,1.));
#738=DIRECTION('',(0.,0.,-1.));
#739=DIRECTION('',(-1.,-1.10730905343191E-14,0.));
#740=DIRECTION('',(0.,0.,1.));
#741=DIRECTION('',(1.,1.10730905343191E-14,0.));
#742=DIRECTION('center_axis',(-1.,-1.10061070406563E-14,0.));
#743=DIRECTION('ref_axis',(1.10061070406563E-14,-1.,0.));
#744=DIRECTION('',(-1.10061070406563E-14,1.,0.));
#745=DIRECTION('',(0.,0.,1.));
#746=DIRECTION('',(1.11022302462516E-14,-1.,0.));
#747=DIRECTION('center_axis',(0.,0.,-1.));
#748=DIRECTION('ref_axis',(-1.,0.,0.));
#749=DIRECTION('',(1.09580454378587E-14,-1.,0.));
#750=DIRECTION('',(-1.,-1.10730905343192E-14,0.));
#751=DIRECTION('',(0.,-1.,0.));
#752=DIRECTION('',(1.,0.,0.));
#753=DIRECTION('',(0.,1.,0.));
#754=DIRECTION('',(-1.,-1.10730905343192E-14,0.));
#755=DIRECTION('center_axis',(1.,1.09580454378587E-14,0.));
#756=DIRECTION('ref_axis',(-1.09580454378587E-14,1.,0.));
#757=DIRECTION('',(-1.09580454378587E-14,1.,0.));
#758=DIRECTION('',(0.,0.,1.));
#759=DIRECTION('center_axis',(1.11022302462516E-14,-1.,0.));
#760=DIRECTION('ref_axis',(0.,0.,-1.));
#761=DIRECTION('',(1.,1.11022302462516E-14,0.));
#762=DIRECTION('',(-1.,-1.11022302462516E-14,0.));
#763=DIRECTION('center_axis',(0.,0.,1.));
#764=DIRECTION('ref_axis',(1.,0.,0.));
#765=DIRECTION('',(-1.,-1.10781473173009E-14,0.));
#766=DIRECTION('',(0.,-1.,0.));
#767=DIRECTION('',(-1.,0.,0.));
#768=DIRECTION('',(0.,1.,0.));
#769=DIRECTION('',(-1.,-1.10781473173009E-14,0.));
#770=DIRECTION('center_axis',(0.,0.,1.));
#771=DIRECTION('ref_axis',(-1.,0.,0.));
#772=DIRECTION('',(1.,1.10730905343192E-14,0.));
#773=DIRECTION('',(0.,1.,0.));
#774=DIRECTION('',(-1.,-1.10781473173009E-14,0.));
#775=DIRECTION('',(0.,-1.,0.));
#776=DIRECTION('',(-1.,-1.10781473173009E-14,0.));
#777=DIRECTION('',(0.,-1.,0.));
#778=DIRECTION('',(1.,1.10730905343192E-14,0.));
#779=DIRECTION('center_axis',(-1.,0.,0.));
#780=DIRECTION('ref_axis',(0.,1.,0.));
#781=DIRECTION('center_axis',(0.,-1.,0.));
#782=DIRECTION('ref_axis',(0.,0.,-1.));
#783=DIRECTION('',(0.,0.,1.));
#784=DIRECTION('',(0.,0.,-1.));
#785=DIRECTION('center_axis',(-1.,0.,0.));
#786=DIRECTION('ref_axis',(0.,0.,-1.));
#787=DIRECTION('',(0.,0.,1.));
#788=DIRECTION('',(0.,0.,-1.));
#789=DIRECTION('center_axis',(1.,0.,0.));
#790=DIRECTION('ref_axis',(0.,0.,1.));
#791=DIRECTION('',(0.,0.,-1.));
#792=DIRECTION('',(0.,0.,1.));
#793=DIRECTION('center_axis',(-1.10781473173009E-14,1.,0.));
#794=DIRECTION('ref_axis',(-1.,-1.10781473173009E-14,0.));
#795=DIRECTION('center_axis',(1.10730905343192E-14,-1.,0.));
#796=DIRECTION('ref_axis',(1.,1.10730905343192E-14,0.));
#797=DIRECTION('center_axis',(1.10730905343192E-14,-1.,0.));
#798=DIRECTION('ref_axis',(1.,1.10730905343192E-14,0.));
#799=DIRECTION('center_axis',(-1.10781473173009E-14,1.,0.));
#800=DIRECTION('ref_axis',(-1.,-1.10781473173009E-14,0.));
#801=CARTESIAN_POINT('',(0.,0.,0.));
#802=CARTESIAN_POINT('Ctrl Pts',(17.499999742955,6.65993888712615,26.95));
#803=CARTESIAN_POINT('Ctrl Pts',(18.499999742955,6.65993888712615,26.95));
#804=CARTESIAN_POINT('Ctrl Pts',(17.499999742955,6.59474761699553,26.95));
#805=CARTESIAN_POINT('Ctrl Pts',(18.499999742955,6.59474761699553,26.95));
#806=CARTESIAN_POINT('Ctrl Pts',(17.499999742955,6.51652012081826,26.949436713548));
#807=CARTESIAN_POINT('Ctrl Pts',(18.499999742955,6.51652012081826,26.949436713548));
#808=CARTESIAN_POINT('Ctrl Pts',(17.499999742955,6.29678885486657,26.9473687208054));
#809=CARTESIAN_POINT('Ctrl Pts',(18.499999742955,6.29678885486657,26.9473687208054));
#810=CARTESIAN_POINT('Ctrl Pts',(17.499999742955,6.11134077030602,26.9452955516309));
#811=CARTESIAN_POINT('Ctrl Pts',(18.499999742955,6.11134077030602,26.9452955516309));
#812=CARTESIAN_POINT('Ctrl Pts',(17.499999742955,5.95679104328156,26.9452955516309));
#813=CARTESIAN_POINT('Ctrl Pts',(18.499999742955,5.95679104328156,26.9452955516309));
#814=CARTESIAN_POINT('Ctrl Pts',(17.499999742955,5.80224131625709,26.9452955516309));
#815=CARTESIAN_POINT('Ctrl Pts',(18.499999742955,5.80224131625709,26.9452955516309));
#816=CARTESIAN_POINT('Ctrl Pts',(17.499999742955,5.61679323169654,26.9473687208054));
#817=CARTESIAN_POINT('Ctrl Pts',(18.499999742955,5.61679323169654,26.9473687208054));
#818=CARTESIAN_POINT('Ctrl Pts',(17.499999742955,5.39706196574485,26.949436713548));
#819=CARTESIAN_POINT('Ctrl Pts',(18.499999742955,5.39706196574485,26.949436713548));
#820=CARTESIAN_POINT('Ctrl Pts',(17.499999742955,5.31883446956758,26.95));
#821=CARTESIAN_POINT('Ctrl Pts',(18.499999742955,5.31883446956758,26.95));
#822=CARTESIAN_POINT('Ctrl Pts',(17.499999742955,5.25364319943696,26.95));
#823=CARTESIAN_POINT('Ctrl Pts',(18.499999742955,5.25364319943696,26.95));
#824=CARTESIAN_POINT('',(17.499999742955,5.25364319943696,26.95));
#825=CARTESIAN_POINT('',(17.499999742955,5.95679104328156,26.9452955516309));
#826=CARTESIAN_POINT('Ctrl Pts',(17.499999742955,5.25364319943696,26.95));
#827=CARTESIAN_POINT('Ctrl Pts',(17.499999742955,5.31883446956758,26.95));
#828=CARTESIAN_POINT('Ctrl Pts',(17.499999742955,5.39706196574485,26.949436713548));
#829=CARTESIAN_POINT('Ctrl Pts',(17.499999742955,5.46225034888799,26.9488231954733));
#830=CARTESIAN_POINT('Ctrl Pts',(17.499999742955,5.61679323169654,26.9473687208054));
#831=CARTESIAN_POINT('Ctrl Pts',(17.499999742955,5.80224131625709,26.9452955516309));
#832=CARTESIAN_POINT('Ctrl Pts',(17.499999742955,5.95679104328156,26.9452955516309));
#833=CARTESIAN_POINT('',(18.499999742955,5.25364319943696,26.95));
#834=CARTESIAN_POINT('',(17.499999742955,5.25364319943696,26.95));
#835=CARTESIAN_POINT('',(18.499999742955,6.65993888712615,26.95));
#836=CARTESIAN_POINT('Ctrl Pts',(18.499999742955,6.65993888712615,26.95));
#837=CARTESIAN_POINT('Ctrl Pts',(18.499999742955,6.59474761699553,26.95));
#838=CARTESIAN_POINT('Ctrl Pts',(18.499999742955,6.51652012081826,26.949436713548));
#839=CARTESIAN_POINT('Ctrl Pts',(18.499999742955,6.45133173767512,26.9488231954733));
#840=CARTESIAN_POINT('Ctrl Pts',(18.499999742955,6.29678885486657,26.9473687208054));
#841=CARTESIAN_POINT('Ctrl Pts',(18.499999742955,6.11134077030602,26.9452955516309));
#842=CARTESIAN_POINT('Ctrl Pts',(18.499999742955,5.95679104328156,26.9452955516309));
#843=CARTESIAN_POINT('Ctrl Pts',(18.499999742955,5.80224131625709,26.9452955516309));
#844=CARTESIAN_POINT('Ctrl Pts',(18.499999742955,5.61679323169654,26.9473687208054));
#845=CARTESIAN_POINT('Ctrl Pts',(18.499999742955,5.46225034888799,26.9488231954733));
#846=CARTESIAN_POINT('Ctrl Pts',(18.499999742955,5.39706196574485,26.949436713548));
#847=CARTESIAN_POINT('Ctrl Pts',(18.499999742955,5.31883446956758,26.95));
#848=CARTESIAN_POINT('Ctrl Pts',(18.499999742955,5.25364319943696,26.95));
#849=CARTESIAN_POINT('',(17.499999742955,6.65993888712615,26.95));
#850=CARTESIAN_POINT('',(17.499999742955,6.65993888712615,26.95));
#851=CARTESIAN_POINT('Ctrl Pts',(17.499999742955,5.95679104328156,26.9452955516309));
#852=CARTESIAN_POINT('Ctrl Pts',(17.499999742955,6.11134077030602,26.9452955516309));
#853=CARTESIAN_POINT('Ctrl Pts',(17.499999742955,6.29678885486657,26.9473687208054));
#854=CARTESIAN_POINT('Ctrl Pts',(17.499999742955,6.45133173767512,26.9488231954733));
#855=CARTESIAN_POINT('Ctrl Pts',(17.499999742955,6.51652012081826,26.949436713548));
#856=CARTESIAN_POINT('Ctrl Pts',(17.499999742955,6.59474761699553,26.95));
#857=CARTESIAN_POINT('Ctrl Pts',(17.499999742955,6.65993888712615,26.95));
#858=CARTESIAN_POINT('Origin',(18.499999742955,7.99999991059303,30.95));
#859=CARTESIAN_POINT('',(18.499999742955,1.99999991059303,26.95));
#860=CARTESIAN_POINT('',(18.499999742955,3.99999991059303,26.95));
#861=CARTESIAN_POINT('',(18.499999742955,1.99999991059303,23.95));
#862=CARTESIAN_POINT('',(18.499999742955,1.99999991059303,30.95));
#863=CARTESIAN_POINT('',(18.499999742955,9.99999991059303,23.95));
#864=CARTESIAN_POINT('',(18.499999742955,7.99999991059303,23.95));
#865=CARTESIAN_POINT('',(18.499999742955,9.99999991059303,26.95));
#866=CARTESIAN_POINT('',(18.499999742955,9.99999991059303,30.95));
#867=CARTESIAN_POINT('',(18.499999742955,3.99999991059303,26.95));
#868=CARTESIAN_POINT('Origin',(14.996885061264,5.95679104328156,25.95));
#869=CARTESIAN_POINT('',(16.596885061264,5.95679104328156,25.95));
#870=CARTESIAN_POINT('Origin',(17.596885061264,5.95679104328156,25.95));
#871=CARTESIAN_POINT('',(13.396885061264,5.95679104328156,25.95));
#872=CARTESIAN_POINT('Origin',(14.996885061264,5.95679104328156,25.95));
#873=CARTESIAN_POINT('Origin',(14.996885061264,5.95679104328156,25.95));
#874=CARTESIAN_POINT('Origin',(14.996885061264,5.95679104328156,26.95));
#875=CARTESIAN_POINT('Origin',(14.7090046064813,5.99999991059303,26.95));
#876=CARTESIAN_POINT('',(11.9180094700076,9.99999991059303,26.95));
#877=CARTESIAN_POINT('',(13.3135070382444,9.99999991059303,26.95));
#878=CARTESIAN_POINT('',(11.9180094700076,1.99999991059303,26.95));
#879=CARTESIAN_POINT('',(11.9180094700077,-2.19667240273679,26.95));
#880=CARTESIAN_POINT('',(17.499999742955,1.99999991059303,26.95));
#881=CARTESIAN_POINT('Origin',(14.996885061264,5.95679104328156,20.95));
#882=CARTESIAN_POINT('',(13.396885061264,5.95679104328156,23.95));
#883=CARTESIAN_POINT('',(13.396885061264,5.95679104328156,20.95));
#884=CARTESIAN_POINT('Origin',(14.996885061264,5.95679104328156,23.95));
#885=CARTESIAN_POINT('Origin',(17.499999742955,1.99999991059303,30.95));
#886=CARTESIAN_POINT('',(11.9180094700076,1.99999991059303,23.95));
#887=CARTESIAN_POINT('',(11.9180094700077,1.99999991059303,27.45));
#888=CARTESIAN_POINT('',(11.499999742955,1.99999991059303,23.95));
#889=CARTESIAN_POINT('Origin',(11.9180094700076,9.99999991059303,30.95));
#890=CARTESIAN_POINT('',(11.9180094700076,9.99999991059303,23.95));
#891=CARTESIAN_POINT('',(17.499999742955,9.99999991059303,23.95));
#892=CARTESIAN_POINT('',(11.9180094700076,9.99999991059303,27.45));
#893=CARTESIAN_POINT('Origin',(11.9180094700078,-8.39334471606656,23.95));
#894=CARTESIAN_POINT('',(11.9180094700075,18.7066552839334,23.95));
#895=CARTESIAN_POINT('',(11.9180094700078,-8.39334471606656,23.95));
#896=CARTESIAN_POINT('',(11.9180094700075,18.7066552839334,30.95));
#897=CARTESIAN_POINT('',(11.9180094700075,18.7066552839334,23.95));
#898=CARTESIAN_POINT('',(11.9180094700079,-19.3933447160666,30.95));
#899=CARTESIAN_POINT('',(11.9180094700078,-8.39334471606656,30.95));
#900=CARTESIAN_POINT('',(11.9180094700079,-19.3933447160666,23.95));
#901=CARTESIAN_POINT('',(11.9180094700079,-19.3933447160666,23.95));
#902=CARTESIAN_POINT('',(11.9180094700078,-8.39334471606656,23.95));
#903=CARTESIAN_POINT('Origin',(-14.0618824958801,5.9865622242825,25.95));
#904=CARTESIAN_POINT('',(-11.4618824958801,5.9865622242825,26.95));
#905=CARTESIAN_POINT('Origin',(-14.0618824958801,5.9865622242825,26.95));
#906=CARTESIAN_POINT('',(-12.4618824958801,5.9865622242825,25.95));
#907=CARTESIAN_POINT('Origin',(-11.4618824958801,5.9865622242825,25.95));
#908=CARTESIAN_POINT('',(-15.6618824958801,5.9865622242825,25.95));
#909=CARTESIAN_POINT('Origin',(-14.0618824958801,5.9865622242825,25.95));
#910=CARTESIAN_POINT('Origin',(-14.0618824958801,5.9865622242825,25.95));
#911=CARTESIAN_POINT('Origin',(-13.9659951442968,5.99999991059303,26.95));
#912=CARTESIAN_POINT('',(-16.7999997586012,1.99999991059303,26.95));
#913=CARTESIAN_POINT('',(-16.7999997586012,9.99999991059303,26.95));
#914=CARTESIAN_POINT('',(-16.7999997586012,7.99999991059303,26.95));
#915=CARTESIAN_POINT('',(-11.1319905299923,1.99999991059303,26.95));
#916=CARTESIAN_POINT('',(-12.5489928371445,1.99999991059303,26.95));
#917=CARTESIAN_POINT('',(-11.1319905299924,9.99999991059303,26.95));
#918=CARTESIAN_POINT('',(-11.1319905299924,13.3533275972631,26.95));
#919=CARTESIAN_POINT('',(-15.382997451449,9.99999991059303,26.95));
#920=CARTESIAN_POINT('Origin',(-14.0618824958801,5.9865622242825,20.95));
#921=CARTESIAN_POINT('',(-15.6618824958801,5.9865622242825,23.95));
#922=CARTESIAN_POINT('',(-15.6618824958801,5.9865622242825,20.95));
#923=CARTESIAN_POINT('Origin',(-14.0618824958801,5.9865622242825,23.95));
#924=CARTESIAN_POINT('Origin',(-16.7999997586012,9.99999991059303,30.95));
#925=CARTESIAN_POINT('',(-11.1319905299924,9.99999991059303,23.95));
#926=CARTESIAN_POINT('',(-11.1319905299924,9.99999991059303,27.45));
#927=CARTESIAN_POINT('',(-16.7999997586012,9.99999991059303,23.95));
#928=CARTESIAN_POINT('',(-16.7999997586012,9.99999991059303,23.95));
#929=CARTESIAN_POINT('',(-16.7999997586012,9.99999991059303,30.95));
#930=CARTESIAN_POINT('Origin',(-11.1319905299923,1.99999991059303,30.95));
#931=CARTESIAN_POINT('',(-16.7999997586012,1.99999991059303,23.95));
#932=CARTESIAN_POINT('',(-16.7999997586012,1.99999991059303,30.95));
#933=CARTESIAN_POINT('',(-11.1319905299923,1.99999991059303,23.95));
#934=CARTESIAN_POINT('',(-10.7999997586012,1.99999991059303,23.95));
#935=CARTESIAN_POINT('',(-11.1319905299923,1.99999991059303,27.45));
#936=CARTESIAN_POINT('Origin',(-11.1319905299925,18.7066552839332,23.95));
#937=CARTESIAN_POINT('',(-11.1319905299921,-19.3933447160668,23.95));
#938=CARTESIAN_POINT('',(-11.1319905299925,18.7066552839332,23.95));
#939=CARTESIAN_POINT('',(-11.1319905299921,-19.3933447160668,30.95));
#940=CARTESIAN_POINT('',(-11.1319905299921,-19.3933447160668,23.95));
#941=CARTESIAN_POINT('',(-11.1319905299925,18.7066552839332,30.95));
#942=CARTESIAN_POINT('',(-11.1319905299925,18.7066552839332,30.95));
#943=CARTESIAN_POINT('',(-11.1319905299925,18.7066552839332,23.95));
#944=CARTESIAN_POINT('',(-11.1319905299925,18.7066552839332,23.95));
#945=CARTESIAN_POINT('',(-11.1319905299925,18.7066552839332,23.95));
#946=CARTESIAN_POINT('Origin',(-9.13199052999209,-17.3933447160668,23.95));
#947=CARTESIAN_POINT('',(-9.13199052999209,-17.3933447160668,28.95));
#948=CARTESIAN_POINT('',(-9.13199052999209,-17.3933447160668,23.95));
#949=CARTESIAN_POINT('',(-9.13199052999209,-17.3933447160668,23.95));
#950=CARTESIAN_POINT('',(9.91800947000792,-17.3933447160666,28.95));
#951=CARTESIAN_POINT('',(-4.36949052999209,-17.3933447160667,28.95));
#952=CARTESIAN_POINT('',(9.91800947000792,-17.3933447160666,23.95));
#953=CARTESIAN_POINT('',(9.91800947000788,-17.3933447160666,23.95));
#954=CARTESIAN_POINT('',(-9.13199052999209,-17.3933447160668,23.95));
#955=CARTESIAN_POINT('Origin',(9.91800947000751,16.7066552839334,23.95));
#956=CARTESIAN_POINT('',(9.91800947000751,16.7066552839334,28.95));
#957=CARTESIAN_POINT('',(9.91800947000757,10.9316552839334,28.95));
#958=CARTESIAN_POINT('',(9.91800947000751,16.7066552839334,23.95));
#959=CARTESIAN_POINT('',(9.91800947000751,16.7066552839334,23.95));
#960=CARTESIAN_POINT('',(9.91800947000775,-5.39334471606658,23.95));
#961=CARTESIAN_POINT('Origin',(0.393009470007649,5.1566552839333,28.95));
#962=CARTESIAN_POINT('',(-9.13199052999246,16.7066552839332,28.95));
#963=CARTESIAN_POINT('',(-9.13199052999227,-0.618344716066801,28.95));
#964=CARTESIAN_POINT('',(-3.0756105634019,16.7066552839332,28.95));
#965=CARTESIAN_POINT('',(-4.36949052999247,16.7066552839332,28.95));
#966=CARTESIAN_POINT('',(-3.0756105634019,5.70665528393329,28.95));
#967=CARTESIAN_POINT('',(-3.0756105634019,11.9316552839333,28.95));
#968=CARTESIAN_POINT('',(3.82162950341731,5.70665528393329,28.95));
#969=CARTESIAN_POINT('',(0.382664478360089,5.70665528393329,28.95));
#970=CARTESIAN_POINT('',(3.82162950341731,16.7066552839333,28.95));
#971=CARTESIAN_POINT('',(3.82162950341731,11.9316552839333,28.95));
#972=CARTESIAN_POINT('',(-4.36949052999247,16.7066552839332,28.95));
#973=CARTESIAN_POINT('Origin',(-9.13199052999221,-6.3933447160668,23.95));
#974=CARTESIAN_POINT('',(-9.13199052999246,16.7066552839332,23.95));
#975=CARTESIAN_POINT('',(-9.13199052999246,16.7066552839332,23.95));
#976=CARTESIAN_POINT('',(-9.13199052999246,16.7066552839332,23.95));
#977=CARTESIAN_POINT('Origin',(-11.1319905299921,-19.3933447160668,23.95));
#978=CARTESIAN_POINT('',(-5.36949052999207,-19.3933447160668,23.95));
#979=CARTESIAN_POINT('',(-5.36949052999207,-19.3933447160668,30.95));
#980=CARTESIAN_POINT('Origin',(0.39300947000765,5.1566552839333,30.95));
#981=CARTESIAN_POINT('',(3.82162950341731,18.7066552839333,30.95));
#982=CARTESIAN_POINT('',(11.9180094700075,18.7066552839334,30.95));
#983=CARTESIAN_POINT('',(3.82162950341731,5.70665528393329,30.95));
#984=CARTESIAN_POINT('',(3.82162950341731,11.9316552839333,30.95));
#985=CARTESIAN_POINT('',(-3.0756105634019,5.70665528393329,30.95));
#986=CARTESIAN_POINT('',(0.382664478360089,5.70665528393329,30.95));
#987=CARTESIAN_POINT('',(-3.0756105634019,18.7066552839333,30.95));
#988=CARTESIAN_POINT('',(-3.0756105634019,11.9316552839333,30.95));
#989=CARTESIAN_POINT('',(11.9180094700075,18.7066552839334,30.95));
#990=CARTESIAN_POINT('Origin',(0.39300947000765,5.1566552839333,23.95));
#991=CARTESIAN_POINT('',(3.82162950341731,16.7066552839333,23.9499999999999));
#992=CARTESIAN_POINT('',(9.91800947000751,16.7066552839334,23.95));
#993=CARTESIAN_POINT('',(3.82162950341731,18.7066552839333,23.9499999999999));
#994=CARTESIAN_POINT('',(3.82162950341731,11.9316552839333,23.95));
#995=CARTESIAN_POINT('',(11.9180094700075,18.7066552839334,23.95));
#996=CARTESIAN_POINT('',(-16.7999997586012,3.99999991059303,23.95));
#997=CARTESIAN_POINT('',(-3.0756105634019,18.7066552839333,23.9499999999999));
#998=CARTESIAN_POINT('',(11.9180094700075,18.7066552839334,23.95));
#999=CARTESIAN_POINT('',(-3.0756105634019,16.7066552839332,23.9499999999999));
#1000=CARTESIAN_POINT('',(-3.0756105634019,11.9316552839333,23.95));
#1001=CARTESIAN_POINT('',(9.91800947000751,16.7066552839334,23.95));
#1002=CARTESIAN_POINT('Origin',(-16.7999997586012,3.99999991059303,30.95));
#1003=CARTESIAN_POINT('Origin',(0.372319486712528,5.70665528393329,28.0506721567831));
#1004=CARTESIAN_POINT('',(3.82162950341731,5.70665528393329,23.9499999999999));
#1005=CARTESIAN_POINT('',(-3.0756105634019,5.70665528393329,30.95));
#1006=CARTESIAN_POINT('Origin',(-3.0756105634019,18.7066552839333,30.95));
#1007=CARTESIAN_POINT('',(-3.0756105634019,16.7066552839332,27.45));
#1008=CARTESIAN_POINT('',(-3.0756105634019,18.7066552839332,27.45));
#1009=CARTESIAN_POINT('Origin',(3.82162950341731,18.7066552839333,23.9499999999999));
#1010=CARTESIAN_POINT('',(3.82162950341731,16.7066552839333,23.95));
#1011=CARTESIAN_POINT('',(3.82162950341731,18.7066552839333,23.95));
#1012=CARTESIAN_POINT('Origin',(11.9180094700075,18.7066552839334,23.95));
#1013=CARTESIAN_POINT('Origin',(-9.13199052999246,16.7066552839332,23.95));
#1014=CARTESIAN_POINT('Origin',(-9.13199052999246,16.7066552839332,23.95));
#1015=CARTESIAN_POINT('Origin',(11.9180094700075,18.7066552839334,23.95));
#1016=UNCERTAINTY_MEASURE_WITH_UNIT(LENGTH_MEASURE(0.01),#1020,
'DISTANCE_ACCURACY_VALUE',
'Maximum model space distance between geometric entities at asserted c
onnectivities');
#1017=UNCERTAINTY_MEASURE_WITH_UNIT(LENGTH_MEASURE(0.01),#1020,
'DISTANCE_ACCURACY_VALUE',
'Maximum model space distance between geometric entities at asserted c
onnectivities');
#1018=(
GEOMETRIC_REPRESENTATION_CONTEXT(3)
GLOBAL_UNCERTAINTY_ASSIGNED_CONTEXT((#1016))
GLOBAL_UNIT_ASSIGNED_CONTEXT((#1020,#1022,#1023))
REPRESENTATION_CONTEXT('','3D')
);
#1019=(
GEOMETRIC_REPRESENTATION_CONTEXT(3)
GLOBAL_UNCERTAINTY_ASSIGNED_CONTEXT((#1017))
GLOBAL_UNIT_ASSIGNED_CONTEXT((#1020,#1022,#1023))
REPRESENTATION_CONTEXT('','3D')
);
#1020=(
LENGTH_UNIT()
NAMED_UNIT(*)
SI_UNIT(.MILLI.,.METRE.)
);
#1021=(
LENGTH_UNIT()
NAMED_UNIT(*)
SI_UNIT($,.METRE.)
);
#1022=(
NAMED_UNIT(*)
PLANE_ANGLE_UNIT()
SI_UNIT($,.RADIAN.)
);
#1023=(
NAMED_UNIT(*)
SI_UNIT($,.STERADIAN.)
SOLID_ANGLE_UNIT()
);
#1024=SHAPE_DEFINITION_REPRESENTATION(#1025,#1026);
#1025=PRODUCT_DEFINITION_SHAPE('',$,#1028);
#1026=SHAPE_REPRESENTATION('',(#613),#1018);
#1027=PRODUCT_DEFINITION_CONTEXT('part definition',#1032,'design');
#1028=PRODUCT_DEFINITION('2026-05-08-16-38-15-521','body',#1029,#1027);
#1029=PRODUCT_DEFINITION_FORMATION('',$,#1034);
#1030=PRODUCT_RELATED_PRODUCT_CATEGORY('body','body',(#1034));
#1031=APPLICATION_PROTOCOL_DEFINITION('international standard',
'automotive_design',2009,#1032);
#1032=APPLICATION_CONTEXT(
'Core Data for Automotive Mechanical Design Process');
#1033=PRODUCT_CONTEXT('part definition',#1032,'mechanical');
#1034=PRODUCT('2026-05-08-16-38-15-521','body',$,(#1033));
#1035=PRESENTATION_STYLE_ASSIGNMENT((#1036));
#1036=SURFACE_STYLE_USAGE(.BOTH.,#1037);
#1037=SURFACE_SIDE_STYLE('',(#1038));
#1038=SURFACE_STYLE_FILL_AREA(#1039);
#1039=FILL_AREA_STYLE('Steel - Satin',(#1040));
#1040=FILL_AREA_STYLE_COLOUR('Steel - Satin',#1041);
#1041=COLOUR_RGB('Steel - Satin',0.627450980392157,0.627450980392157,0.627450980392157);
ENDSEC;
END-ISO-10303-21;
