ISO-10303-21;
HEADER;
/* Generated by software containing ST-Developer
 * from STEP Tools, Inc. (www.steptools.com) 
 */

FILE_DESCRIPTION(
/* description */ (''),
/* implementation_level */ '2;1');

FILE_NAME(
/* name */ 'IR_TOP_LID.step',
/* time_stamp */ '2026-05-09T09:49:56+05:30',
/* author */ (''),
/* organization */ (''),
/* preprocessor_version */ 'ST-DEVELOPER v20.1',
/* originating_system */ 'Autodesk Translation Framework v15.8.0.0',
/* authorisation */ '');

FILE_SCHEMA (('AUTOMOTIVE_DESIGN { 1 0 10303 214 3 1 1 }'));
ENDSEC;

DATA;
#10=MECHANICAL_DESIGN_GEOMETRIC_PRESENTATION_REPRESENTATION('',(#13),#1237);
#11=SHAPE_REPRESENTATION_RELATIONSHIP('SRR','None',#1244,#12);
#12=ADVANCED_BREP_SHAPE_REPRESENTATION('',(#14),#1236);
#13=STYLED_ITEM('',(#1253),#14);
#14=MANIFOLD_SOLID_BREP('Body2',#729);
#15=FACE_BOUND('',#93,.T.);
#16=FACE_BOUND('',#94,.T.);
#17=FACE_BOUND('',#95,.T.);
#18=FACE_BOUND('',#96,.T.);
#19=FACE_BOUND('',#97,.T.);
#20=FACE_BOUND('',#100,.T.);
#21=FACE_BOUND('',#118,.T.);
#22=FACE_BOUND('',#128,.T.);
#23=FACE_BOUND('',#129,.T.);
#24=FACE_BOUND('',#130,.T.);
#25=FACE_BOUND('',#131,.T.);
#26=PLANE('',#746);
#27=PLANE('',#750);
#28=PLANE('',#754);
#29=PLANE('',#758);
#30=PLANE('',#759);
#31=PLANE('',#772);
#32=PLANE('',#777);
#33=PLANE('',#778);
#34=PLANE('',#781);
#35=PLANE('',#782);
#36=PLANE('',#783);
#37=PLANE('',#784);
#38=PLANE('',#789);
#39=PLANE('',#794);
#40=PLANE('',#797);
#41=PLANE('',#800);
#42=PLANE('',#806);
#43=PLANE('',#808);
#44=PLANE('',#810);
#45=PLANE('',#812);
#46=PLANE('',#813);
#47=FACE_OUTER_BOUND('',#84,.T.);
#48=FACE_OUTER_BOUND('',#85,.T.);
#49=FACE_OUTER_BOUND('',#86,.T.);
#50=FACE_OUTER_BOUND('',#87,.T.);
#51=FACE_OUTER_BOUND('',#88,.T.);
#52=FACE_OUTER_BOUND('',#89,.T.);
#53=FACE_OUTER_BOUND('',#90,.T.);
#54=FACE_OUTER_BOUND('',#91,.T.);
#55=FACE_OUTER_BOUND('',#92,.T.);
#56=FACE_OUTER_BOUND('',#98,.T.);
#57=FACE_OUTER_BOUND('',#99,.T.);
#58=FACE_OUTER_BOUND('',#101,.T.);
#59=FACE_OUTER_BOUND('',#102,.T.);
#60=FACE_OUTER_BOUND('',#103,.T.);
#61=FACE_OUTER_BOUND('',#104,.T.);
#62=FACE_OUTER_BOUND('',#105,.T.);
#63=FACE_OUTER_BOUND('',#106,.T.);
#64=FACE_OUTER_BOUND('',#107,.T.);
#65=FACE_OUTER_BOUND('',#108,.T.);
#66=FACE_OUTER_BOUND('',#109,.T.);
#67=FACE_OUTER_BOUND('',#110,.T.);
#68=FACE_OUTER_BOUND('',#111,.T.);
#69=FACE_OUTER_BOUND('',#112,.T.);
#70=FACE_OUTER_BOUND('',#113,.T.);
#71=FACE_OUTER_BOUND('',#114,.T.);
#72=FACE_OUTER_BOUND('',#115,.T.);
#73=FACE_OUTER_BOUND('',#116,.T.);
#74=FACE_OUTER_BOUND('',#117,.T.);
#75=FACE_OUTER_BOUND('',#119,.T.);
#76=FACE_OUTER_BOUND('',#120,.T.);
#77=FACE_OUTER_BOUND('',#121,.T.);
#78=FACE_OUTER_BOUND('',#122,.T.);
#79=FACE_OUTER_BOUND('',#123,.T.);
#80=FACE_OUTER_BOUND('',#124,.T.);
#81=FACE_OUTER_BOUND('',#125,.T.);
#82=FACE_OUTER_BOUND('',#126,.T.);
#83=FACE_OUTER_BOUND('',#127,.T.);
#84=EDGE_LOOP('',(#472,#473,#474,#475));
#85=EDGE_LOOP('',(#476,#477,#478,#479));
#86=EDGE_LOOP('',(#480,#481,#482,#483));
#87=EDGE_LOOP('',(#484,#485,#486,#487));
#88=EDGE_LOOP('',(#488,#489,#490,#491));
#89=EDGE_LOOP('',(#492,#493,#494,#495));
#90=EDGE_LOOP('',(#496,#497,#498,#499));
#91=EDGE_LOOP('',(#500,#501,#502,#503));
#92=EDGE_LOOP('',(#504,#505,#506,#507,#508,#509,#510,#511));
#93=EDGE_LOOP('',(#512));
#94=EDGE_LOOP('',(#513));
#95=EDGE_LOOP('',(#514,#515,#516,#517));
#96=EDGE_LOOP('',(#518));
#97=EDGE_LOOP('',(#519));
#98=EDGE_LOOP('',(#520,#521,#522,#523,#524,#525,#526,#527));
#99=EDGE_LOOP('',(#528,#529,#530,#531,#532,#533,#534,#535));
#100=EDGE_LOOP('',(#536,#537,#538,#539,#540,#541,#542,#543,#544,#545));
#101=EDGE_LOOP('',(#546,#547,#548,#549));
#102=EDGE_LOOP('',(#550,#551,#552,#553));
#103=EDGE_LOOP('',(#554,#555,#556,#557));
#104=EDGE_LOOP('',(#558,#559,#560,#561));
#105=EDGE_LOOP('',(#562,#563,#564,#565));
#106=EDGE_LOOP('',(#566,#567,#568,#569));
#107=EDGE_LOOP('',(#570,#571,#572,#573));
#108=EDGE_LOOP('',(#574,#575,#576,#577));
#109=EDGE_LOOP('',(#578,#579,#580,#581));
#110=EDGE_LOOP('',(#582,#583,#584,#585));
#111=EDGE_LOOP('',(#586,#587,#588,#589));
#112=EDGE_LOOP('',(#590,#591,#592,#593));
#113=EDGE_LOOP('',(#594,#595,#596,#597));
#114=EDGE_LOOP('',(#598,#599,#600,#601));
#115=EDGE_LOOP('',(#602,#603,#604,#605));
#116=EDGE_LOOP('',(#606,#607,#608,#609));
#117=EDGE_LOOP('',(#610,#611,#612,#613,#614,#615,#616,#617));
#118=EDGE_LOOP('',(#618,#619,#620,#621,#622,#623,#624,#625));
#119=EDGE_LOOP('',(#626,#627,#628,#629));
#120=EDGE_LOOP('',(#630,#631,#632,#633));
#121=EDGE_LOOP('',(#634,#635,#636,#637));
#122=EDGE_LOOP('',(#638,#639,#640,#641));
#123=EDGE_LOOP('',(#642,#643,#644,#645));
#124=EDGE_LOOP('',(#646,#647,#648,#649));
#125=EDGE_LOOP('',(#650,#651,#652,#653));
#126=EDGE_LOOP('',(#654,#655,#656,#657));
#127=EDGE_LOOP('',(#658,#659,#660,#661,#662,#663,#664,#665,#666,#667,#668));
#128=EDGE_LOOP('',(#669));
#129=EDGE_LOOP('',(#670,#671,#672,#673));
#130=EDGE_LOOP('',(#674));
#131=EDGE_LOOP('',(#675));
#132=LINE('',#1032,#200);
#133=LINE('',#1035,#201);
#134=LINE('',#1038,#202);
#135=LINE('',#1040,#203);
#136=LINE('',#1041,#204);
#137=LINE('',#1046,#205);
#138=LINE('',#1050,#206);
#139=LINE('',#1052,#207);
#140=LINE('',#1053,#208);
#141=LINE('',#1058,#209);
#142=LINE('',#1062,#210);
#143=LINE('',#1064,#211);
#144=LINE('',#1065,#212);
#145=LINE('',#1070,#213);
#146=LINE('',#1073,#214);
#147=LINE('',#1074,#215);
#148=LINE('',#1078,#216);
#149=LINE('',#1082,#217);
#150=LINE('',#1086,#218);
#151=LINE('',#1090,#219);
#152=LINE('',#1098,#220);
#153=LINE('',#1100,#221);
#154=LINE('',#1102,#222);
#155=LINE('',#1103,#223);
#156=LINE('',#1110,#224);
#157=LINE('',#1114,#225);
#158=LINE('',#1118,#226);
#159=LINE('',#1122,#227);
#160=LINE('',#1126,#228);
#161=LINE('',#1130,#229);
#162=LINE('',#1134,#230);
#163=LINE('',#1137,#231);
#164=LINE('',#1140,#232);
#165=LINE('',#1141,#233);
#166=LINE('',#1144,#234);
#167=LINE('',#1145,#235);
#168=LINE('',#1148,#236);
#169=LINE('',#1152,#237);
#170=LINE('',#1154,#238);
#171=LINE('',#1155,#239);
#172=LINE('',#1158,#240);
#173=LINE('',#1159,#241);
#174=LINE('',#1162,#242);
#175=LINE('',#1163,#243);
#176=LINE('',#1165,#244);
#177=LINE('',#1168,#245);
#178=LINE('',#1172,#246);
#179=LINE('',#1177,#247);
#180=LINE('',#1178,#248);
#181=LINE('',#1179,#249);
#182=LINE('',#1185,#250);
#183=LINE('',#1188,#251);
#184=LINE('',#1189,#252);
#185=LINE('',#1193,#253);
#186=LINE('',#1196,#254);
#187=LINE('',#1197,#255);
#188=LINE('',#1203,#256);
#189=LINE('',#1207,#257);
#190=LINE('',#1211,#258);
#191=LINE('',#1215,#259);
#192=LINE('',#1218,#260);
#193=LINE('',#1219,#261);
#194=LINE('',#1221,#262);
#195=LINE('',#1223,#263);
#196=LINE('',#1225,#264);
#197=LINE('',#1227,#265);
#198=LINE('',#1229,#266);
#199=LINE('',#1231,#267);
#200=VECTOR('',#820,10.);
#201=VECTOR('',#823,10.);
#202=VECTOR('',#826,10.);
#203=VECTOR('',#827,10.);
#204=VECTOR('',#828,10.);
#205=VECTOR('',#833,10.);
#206=VECTOR('',#838,10.);
#207=VECTOR('',#839,10.);
#208=VECTOR('',#840,10.);
#209=VECTOR('',#845,10.);
#210=VECTOR('',#850,10.);
#211=VECTOR('',#851,10.);
#212=VECTOR('',#852,10.);
#213=VECTOR('',#857,10.);
#214=VECTOR('',#862,10.);
#215=VECTOR('',#863,10.);
#216=VECTOR('',#866,10.);
#217=VECTOR('',#869,10.);
#218=VECTOR('',#872,10.);
#219=VECTOR('',#875,10.);
#220=VECTOR('',#882,10.);
#221=VECTOR('',#883,10.);
#222=VECTOR('',#884,10.);
#223=VECTOR('',#885,10.);
#224=VECTOR('',#892,1.6);
#225=VECTOR('',#895,10.);
#226=VECTOR('',#898,10.);
#227=VECTOR('',#903,10.);
#228=VECTOR('',#906,10.);
#229=VECTOR('',#909,10.);
#230=VECTOR('',#912,10.);
#231=VECTOR('',#915,10.);
#232=VECTOR('',#918,10.);
#233=VECTOR('',#919,10.);
#234=VECTOR('',#922,10.);
#235=VECTOR('',#923,10.);
#236=VECTOR('',#926,1.6);
#237=VECTOR('',#931,10.);
#238=VECTOR('',#932,10.);
#239=VECTOR('',#933,10.);
#240=VECTOR('',#936,10.);
#241=VECTOR('',#937,10.);
#242=VECTOR('',#940,10.);
#243=VECTOR('',#941,10.);
#244=VECTOR('',#944,10.);
#245=VECTOR('',#947,1.75);
#246=VECTOR('',#952,1.75);
#247=VECTOR('',#957,10.);
#248=VECTOR('',#958,10.);
#249=VECTOR('',#959,10.);
#250=VECTOR('',#968,10.);
#251=VECTOR('',#971,10.);
#252=VECTOR('',#972,10.);
#253=VECTOR('',#977,10.);
#254=VECTOR('',#980,10.);
#255=VECTOR('',#981,10.);
#256=VECTOR('',#988,10.);
#257=VECTOR('',#991,10.);
#258=VECTOR('',#994,10.);
#259=VECTOR('',#997,10.);
#260=VECTOR('',#1002,10.);
#261=VECTOR('',#1003,10.);
#262=VECTOR('',#1006,10.);
#263=VECTOR('',#1009,10.);
#264=VECTOR('',#1012,10.);
#265=VECTOR('',#1015,10.);
#266=VECTOR('',#1018,10.);
#267=VECTOR('',#1021,10.);
#268=CIRCLE('',#744,5.4);
#269=CIRCLE('',#745,5.4);
#270=CIRCLE('',#748,5.4);
#271=CIRCLE('',#749,5.4);
#272=CIRCLE('',#752,5.4);
#273=CIRCLE('',#753,5.4);
#274=CIRCLE('',#756,5.4);
#275=CIRCLE('',#757,5.4);
#276=CIRCLE('',#760,7.5);
#277=CIRCLE('',#761,7.5);
#278=CIRCLE('',#762,7.5);
#279=CIRCLE('',#763,7.5);
#280=CIRCLE('',#764,1.75);
#281=CIRCLE('',#765,1.75);
#282=CIRCLE('',#766,1.6);
#283=CIRCLE('',#767,1.6);
#284=CIRCLE('',#769,1.6);
#285=CIRCLE('',#770,1.6);
#286=CIRCLE('',#771,1.6);
#287=CIRCLE('',#773,3.3);
#288=CIRCLE('',#774,3.3);
#289=CIRCLE('',#775,3.3);
#290=CIRCLE('',#776,3.3);
#291=CIRCLE('',#780,1.6);
#292=CIRCLE('',#786,1.75);
#293=CIRCLE('',#788,1.75);
#294=CIRCLE('',#791,3.3);
#295=CIRCLE('',#793,3.3);
#296=CIRCLE('',#796,3.3);
#297=CIRCLE('',#799,3.3);
#298=CIRCLE('',#801,7.5);
#299=CIRCLE('',#802,7.5);
#300=CIRCLE('',#803,7.5);
#301=CIRCLE('',#804,7.5);
#302=VERTEX_POINT('',#1028);
#303=VERTEX_POINT('',#1029);
#304=VERTEX_POINT('',#1031);
#305=VERTEX_POINT('',#1033);
#306=VERTEX_POINT('',#1037);
#307=VERTEX_POINT('',#1039);
#308=VERTEX_POINT('',#1043);
#309=VERTEX_POINT('',#1045);
#310=VERTEX_POINT('',#1049);
#311=VERTEX_POINT('',#1051);
#312=VERTEX_POINT('',#1055);
#313=VERTEX_POINT('',#1057);
#314=VERTEX_POINT('',#1061);
#315=VERTEX_POINT('',#1063);
#316=VERTEX_POINT('',#1067);
#317=VERTEX_POINT('',#1069);
#318=VERTEX_POINT('',#1076);
#319=VERTEX_POINT('',#1077);
#320=VERTEX_POINT('',#1079);
#321=VERTEX_POINT('',#1081);
#322=VERTEX_POINT('',#1083);
#323=VERTEX_POINT('',#1085);
#324=VERTEX_POINT('',#1087);
#325=VERTEX_POINT('',#1089);
#326=VERTEX_POINT('',#1092);
#327=VERTEX_POINT('',#1094);
#328=VERTEX_POINT('',#1096);
#329=VERTEX_POINT('',#1097);
#330=VERTEX_POINT('',#1099);
#331=VERTEX_POINT('',#1101);
#332=VERTEX_POINT('',#1104);
#333=VERTEX_POINT('',#1106);
#334=VERTEX_POINT('',#1109);
#335=VERTEX_POINT('',#1111);
#336=VERTEX_POINT('',#1113);
#337=VERTEX_POINT('',#1115);
#338=VERTEX_POINT('',#1117);
#339=VERTEX_POINT('',#1121);
#340=VERTEX_POINT('',#1123);
#341=VERTEX_POINT('',#1125);
#342=VERTEX_POINT('',#1127);
#343=VERTEX_POINT('',#1129);
#344=VERTEX_POINT('',#1131);
#345=VERTEX_POINT('',#1133);
#346=VERTEX_POINT('',#1135);
#347=VERTEX_POINT('',#1139);
#348=VERTEX_POINT('',#1143);
#349=VERTEX_POINT('',#1147);
#350=VERTEX_POINT('',#1151);
#351=VERTEX_POINT('',#1153);
#352=VERTEX_POINT('',#1157);
#353=VERTEX_POINT('',#1161);
#354=VERTEX_POINT('',#1167);
#355=VERTEX_POINT('',#1171);
#356=VERTEX_POINT('',#1175);
#357=VERTEX_POINT('',#1176);
#358=VERTEX_POINT('',#1183);
#359=VERTEX_POINT('',#1187);
#360=VERTEX_POINT('',#1191);
#361=VERTEX_POINT('',#1195);
#362=VERTEX_POINT('',#1201);
#363=VERTEX_POINT('',#1202);
#364=VERTEX_POINT('',#1204);
#365=VERTEX_POINT('',#1206);
#366=VERTEX_POINT('',#1208);
#367=VERTEX_POINT('',#1210);
#368=VERTEX_POINT('',#1212);
#369=VERTEX_POINT('',#1214);
#370=EDGE_CURVE('',#302,#303,#268,.T.);
#371=EDGE_CURVE('',#304,#302,#132,.T.);
#372=EDGE_CURVE('',#305,#304,#269,.T.);
#373=EDGE_CURVE('',#305,#303,#133,.T.);
#374=EDGE_CURVE('',#306,#302,#134,.T.);
#375=EDGE_CURVE('',#307,#306,#135,.T.);
#376=EDGE_CURVE('',#304,#307,#136,.T.);
#377=EDGE_CURVE('',#308,#306,#270,.T.);
#378=EDGE_CURVE('',#309,#308,#137,.T.);
#379=EDGE_CURVE('',#307,#309,#271,.T.);
#380=EDGE_CURVE('',#310,#308,#138,.T.);
#381=EDGE_CURVE('',#311,#310,#139,.T.);
#382=EDGE_CURVE('',#309,#311,#140,.T.);
#383=EDGE_CURVE('',#312,#310,#272,.T.);
#384=EDGE_CURVE('',#313,#312,#141,.T.);
#385=EDGE_CURVE('',#311,#313,#273,.T.);
#386=EDGE_CURVE('',#314,#312,#142,.T.);
#387=EDGE_CURVE('',#315,#314,#143,.T.);
#388=EDGE_CURVE('',#313,#315,#144,.T.);
#389=EDGE_CURVE('',#316,#314,#274,.T.);
#390=EDGE_CURVE('',#317,#316,#145,.T.);
#391=EDGE_CURVE('',#315,#317,#275,.T.);
#392=EDGE_CURVE('',#303,#316,#146,.T.);
#393=EDGE_CURVE('',#317,#305,#147,.T.);
#394=EDGE_CURVE('',#318,#319,#148,.T.);
#395=EDGE_CURVE('',#319,#320,#276,.T.);
#396=EDGE_CURVE('',#320,#321,#149,.T.);
#397=EDGE_CURVE('',#321,#322,#277,.T.);
#398=EDGE_CURVE('',#322,#323,#150,.T.);
#399=EDGE_CURVE('',#323,#324,#278,.T.);
#400=EDGE_CURVE('',#324,#325,#151,.T.);
#401=EDGE_CURVE('',#325,#318,#279,.T.);
#402=EDGE_CURVE('',#326,#326,#280,.T.);
#403=EDGE_CURVE('',#327,#327,#281,.T.);
#404=EDGE_CURVE('',#328,#329,#152,.T.);
#405=EDGE_CURVE('',#329,#330,#153,.T.);
#406=EDGE_CURVE('',#330,#331,#154,.T.);
#407=EDGE_CURVE('',#331,#328,#155,.T.);
#408=EDGE_CURVE('',#332,#332,#282,.T.);
#409=EDGE_CURVE('',#333,#333,#283,.T.);
#410=EDGE_CURVE('',#333,#334,#156,.T.);
#411=EDGE_CURVE('',#335,#334,#284,.T.);
#412=EDGE_CURVE('',#336,#335,#157,.T.);
#413=EDGE_CURVE('',#337,#336,#285,.T.);
#414=EDGE_CURVE('',#338,#337,#158,.T.);
#415=EDGE_CURVE('',#334,#338,#286,.T.);
#416=EDGE_CURVE('',#336,#339,#159,.T.);
#417=EDGE_CURVE('',#339,#340,#287,.T.);
#418=EDGE_CURVE('',#340,#341,#160,.T.);
#419=EDGE_CURVE('',#341,#342,#288,.T.);
#420=EDGE_CURVE('',#342,#343,#161,.T.);
#421=EDGE_CURVE('',#343,#344,#289,.T.);
#422=EDGE_CURVE('',#344,#345,#162,.T.);
#423=EDGE_CURVE('',#345,#346,#290,.T.);
#424=EDGE_CURVE('',#346,#337,#163,.T.);
#425=EDGE_CURVE('',#347,#335,#164,.T.);
#426=EDGE_CURVE('',#347,#339,#165,.T.);
#427=EDGE_CURVE('',#348,#346,#166,.T.);
#428=EDGE_CURVE('',#338,#348,#167,.T.);
#429=EDGE_CURVE('',#332,#349,#168,.T.);
#430=EDGE_CURVE('',#349,#349,#291,.T.);
#431=EDGE_CURVE('',#350,#330,#169,.T.);
#432=EDGE_CURVE('',#351,#350,#170,.T.);
#433=EDGE_CURVE('',#351,#331,#171,.T.);
#434=EDGE_CURVE('',#352,#351,#172,.T.);
#435=EDGE_CURVE('',#328,#352,#173,.T.);
#436=EDGE_CURVE('',#353,#352,#174,.T.);
#437=EDGE_CURVE('',#353,#329,#175,.T.);
#438=EDGE_CURVE('',#350,#353,#176,.T.);
#439=EDGE_CURVE('',#327,#354,#177,.T.);
#440=EDGE_CURVE('',#354,#354,#292,.T.);
#441=EDGE_CURVE('',#326,#355,#178,.T.);
#442=EDGE_CURVE('',#355,#355,#293,.T.);
#443=EDGE_CURVE('',#356,#357,#179,.T.);
#444=EDGE_CURVE('',#356,#341,#180,.T.);
#445=EDGE_CURVE('',#357,#340,#181,.T.);
#446=EDGE_CURVE('',#357,#347,#294,.T.);
#447=EDGE_CURVE('',#348,#358,#295,.T.);
#448=EDGE_CURVE('',#358,#345,#182,.T.);
#449=EDGE_CURVE('',#358,#359,#183,.T.);
#450=EDGE_CURVE('',#359,#344,#184,.T.);
#451=EDGE_CURVE('',#359,#360,#296,.T.);
#452=EDGE_CURVE('',#360,#343,#185,.T.);
#453=EDGE_CURVE('',#360,#361,#186,.T.);
#454=EDGE_CURVE('',#361,#342,#187,.T.);
#455=EDGE_CURVE('',#361,#356,#297,.T.);
#456=EDGE_CURVE('',#362,#363,#188,.T.);
#457=EDGE_CURVE('',#364,#362,#298,.T.);
#458=EDGE_CURVE('',#365,#364,#189,.T.);
#459=EDGE_CURVE('',#366,#365,#299,.T.);
#460=EDGE_CURVE('',#367,#366,#190,.T.);
#461=EDGE_CURVE('',#368,#367,#300,.T.);
#462=EDGE_CURVE('',#369,#368,#191,.T.);
#463=EDGE_CURVE('',#363,#369,#301,.T.);
#464=EDGE_CURVE('',#362,#318,#192,.T.);
#465=EDGE_CURVE('',#364,#325,#193,.T.);
#466=EDGE_CURVE('',#365,#324,#194,.T.);
#467=EDGE_CURVE('',#366,#323,#195,.T.);
#468=EDGE_CURVE('',#367,#322,#196,.T.);
#469=EDGE_CURVE('',#368,#321,#197,.T.);
#470=EDGE_CURVE('',#369,#320,#198,.T.);
#471=EDGE_CURVE('',#363,#319,#199,.T.);
#472=ORIENTED_EDGE('',*,*,#370,.F.);
#473=ORIENTED_EDGE('',*,*,#371,.F.);
#474=ORIENTED_EDGE('',*,*,#372,.F.);
#475=ORIENTED_EDGE('',*,*,#373,.T.);
#476=ORIENTED_EDGE('',*,*,#374,.F.);
#477=ORIENTED_EDGE('',*,*,#375,.F.);
#478=ORIENTED_EDGE('',*,*,#376,.F.);
#479=ORIENTED_EDGE('',*,*,#371,.T.);
#480=ORIENTED_EDGE('',*,*,#377,.F.);
#481=ORIENTED_EDGE('',*,*,#378,.F.);
#482=ORIENTED_EDGE('',*,*,#379,.F.);
#483=ORIENTED_EDGE('',*,*,#375,.T.);
#484=ORIENTED_EDGE('',*,*,#380,.F.);
#485=ORIENTED_EDGE('',*,*,#381,.F.);
#486=ORIENTED_EDGE('',*,*,#382,.F.);
#487=ORIENTED_EDGE('',*,*,#378,.T.);
#488=ORIENTED_EDGE('',*,*,#383,.F.);
#489=ORIENTED_EDGE('',*,*,#384,.F.);
#490=ORIENTED_EDGE('',*,*,#385,.F.);
#491=ORIENTED_EDGE('',*,*,#381,.T.);
#492=ORIENTED_EDGE('',*,*,#386,.F.);
#493=ORIENTED_EDGE('',*,*,#387,.F.);
#494=ORIENTED_EDGE('',*,*,#388,.F.);
#495=ORIENTED_EDGE('',*,*,#384,.T.);
#496=ORIENTED_EDGE('',*,*,#389,.F.);
#497=ORIENTED_EDGE('',*,*,#390,.F.);
#498=ORIENTED_EDGE('',*,*,#391,.F.);
#499=ORIENTED_EDGE('',*,*,#387,.T.);
#500=ORIENTED_EDGE('',*,*,#392,.F.);
#501=ORIENTED_EDGE('',*,*,#373,.F.);
#502=ORIENTED_EDGE('',*,*,#393,.F.);
#503=ORIENTED_EDGE('',*,*,#390,.T.);
#504=ORIENTED_EDGE('',*,*,#394,.T.);
#505=ORIENTED_EDGE('',*,*,#395,.T.);
#506=ORIENTED_EDGE('',*,*,#396,.T.);
#507=ORIENTED_EDGE('',*,*,#397,.T.);
#508=ORIENTED_EDGE('',*,*,#398,.T.);
#509=ORIENTED_EDGE('',*,*,#399,.T.);
#510=ORIENTED_EDGE('',*,*,#400,.T.);
#511=ORIENTED_EDGE('',*,*,#401,.T.);
#512=ORIENTED_EDGE('',*,*,#402,.T.);
#513=ORIENTED_EDGE('',*,*,#403,.T.);
#514=ORIENTED_EDGE('',*,*,#404,.T.);
#515=ORIENTED_EDGE('',*,*,#405,.T.);
#516=ORIENTED_EDGE('',*,*,#406,.T.);
#517=ORIENTED_EDGE('',*,*,#407,.T.);
#518=ORIENTED_EDGE('',*,*,#408,.T.);
#519=ORIENTED_EDGE('',*,*,#409,.T.);
#520=ORIENTED_EDGE('',*,*,#409,.F.);
#521=ORIENTED_EDGE('',*,*,#410,.T.);
#522=ORIENTED_EDGE('',*,*,#411,.F.);
#523=ORIENTED_EDGE('',*,*,#412,.F.);
#524=ORIENTED_EDGE('',*,*,#413,.F.);
#525=ORIENTED_EDGE('',*,*,#414,.F.);
#526=ORIENTED_EDGE('',*,*,#415,.F.);
#527=ORIENTED_EDGE('',*,*,#410,.F.);
#528=ORIENTED_EDGE('',*,*,#379,.T.);
#529=ORIENTED_EDGE('',*,*,#382,.T.);
#530=ORIENTED_EDGE('',*,*,#385,.T.);
#531=ORIENTED_EDGE('',*,*,#388,.T.);
#532=ORIENTED_EDGE('',*,*,#391,.T.);
#533=ORIENTED_EDGE('',*,*,#393,.T.);
#534=ORIENTED_EDGE('',*,*,#372,.T.);
#535=ORIENTED_EDGE('',*,*,#376,.T.);
#536=ORIENTED_EDGE('',*,*,#413,.T.);
#537=ORIENTED_EDGE('',*,*,#416,.T.);
#538=ORIENTED_EDGE('',*,*,#417,.T.);
#539=ORIENTED_EDGE('',*,*,#418,.T.);
#540=ORIENTED_EDGE('',*,*,#419,.T.);
#541=ORIENTED_EDGE('',*,*,#420,.T.);
#542=ORIENTED_EDGE('',*,*,#421,.T.);
#543=ORIENTED_EDGE('',*,*,#422,.T.);
#544=ORIENTED_EDGE('',*,*,#423,.T.);
#545=ORIENTED_EDGE('',*,*,#424,.T.);
#546=ORIENTED_EDGE('',*,*,#412,.T.);
#547=ORIENTED_EDGE('',*,*,#425,.F.);
#548=ORIENTED_EDGE('',*,*,#426,.T.);
#549=ORIENTED_EDGE('',*,*,#416,.F.);
#550=ORIENTED_EDGE('',*,*,#414,.T.);
#551=ORIENTED_EDGE('',*,*,#424,.F.);
#552=ORIENTED_EDGE('',*,*,#427,.F.);
#553=ORIENTED_EDGE('',*,*,#428,.F.);
#554=ORIENTED_EDGE('',*,*,#408,.F.);
#555=ORIENTED_EDGE('',*,*,#429,.T.);
#556=ORIENTED_EDGE('',*,*,#430,.F.);
#557=ORIENTED_EDGE('',*,*,#429,.F.);
#558=ORIENTED_EDGE('',*,*,#406,.F.);
#559=ORIENTED_EDGE('',*,*,#431,.F.);
#560=ORIENTED_EDGE('',*,*,#432,.F.);
#561=ORIENTED_EDGE('',*,*,#433,.T.);
#562=ORIENTED_EDGE('',*,*,#407,.F.);
#563=ORIENTED_EDGE('',*,*,#433,.F.);
#564=ORIENTED_EDGE('',*,*,#434,.F.);
#565=ORIENTED_EDGE('',*,*,#435,.F.);
#566=ORIENTED_EDGE('',*,*,#404,.F.);
#567=ORIENTED_EDGE('',*,*,#435,.T.);
#568=ORIENTED_EDGE('',*,*,#436,.F.);
#569=ORIENTED_EDGE('',*,*,#437,.T.);
#570=ORIENTED_EDGE('',*,*,#405,.F.);
#571=ORIENTED_EDGE('',*,*,#437,.F.);
#572=ORIENTED_EDGE('',*,*,#438,.F.);
#573=ORIENTED_EDGE('',*,*,#431,.T.);
#574=ORIENTED_EDGE('',*,*,#403,.F.);
#575=ORIENTED_EDGE('',*,*,#439,.T.);
#576=ORIENTED_EDGE('',*,*,#440,.F.);
#577=ORIENTED_EDGE('',*,*,#439,.F.);
#578=ORIENTED_EDGE('',*,*,#402,.F.);
#579=ORIENTED_EDGE('',*,*,#441,.T.);
#580=ORIENTED_EDGE('',*,*,#442,.F.);
#581=ORIENTED_EDGE('',*,*,#441,.F.);
#582=ORIENTED_EDGE('',*,*,#443,.F.);
#583=ORIENTED_EDGE('',*,*,#444,.T.);
#584=ORIENTED_EDGE('',*,*,#418,.F.);
#585=ORIENTED_EDGE('',*,*,#445,.F.);
#586=ORIENTED_EDGE('',*,*,#446,.F.);
#587=ORIENTED_EDGE('',*,*,#445,.T.);
#588=ORIENTED_EDGE('',*,*,#417,.F.);
#589=ORIENTED_EDGE('',*,*,#426,.F.);
#590=ORIENTED_EDGE('',*,*,#447,.F.);
#591=ORIENTED_EDGE('',*,*,#427,.T.);
#592=ORIENTED_EDGE('',*,*,#423,.F.);
#593=ORIENTED_EDGE('',*,*,#448,.F.);
#594=ORIENTED_EDGE('',*,*,#449,.F.);
#595=ORIENTED_EDGE('',*,*,#448,.T.);
#596=ORIENTED_EDGE('',*,*,#422,.F.);
#597=ORIENTED_EDGE('',*,*,#450,.F.);
#598=ORIENTED_EDGE('',*,*,#451,.F.);
#599=ORIENTED_EDGE('',*,*,#450,.T.);
#600=ORIENTED_EDGE('',*,*,#421,.F.);
#601=ORIENTED_EDGE('',*,*,#452,.F.);
#602=ORIENTED_EDGE('',*,*,#453,.F.);
#603=ORIENTED_EDGE('',*,*,#452,.T.);
#604=ORIENTED_EDGE('',*,*,#420,.F.);
#605=ORIENTED_EDGE('',*,*,#454,.F.);
#606=ORIENTED_EDGE('',*,*,#455,.F.);
#607=ORIENTED_EDGE('',*,*,#454,.T.);
#608=ORIENTED_EDGE('',*,*,#419,.F.);
#609=ORIENTED_EDGE('',*,*,#444,.F.);
#610=ORIENTED_EDGE('',*,*,#456,.F.);
#611=ORIENTED_EDGE('',*,*,#457,.F.);
#612=ORIENTED_EDGE('',*,*,#458,.F.);
#613=ORIENTED_EDGE('',*,*,#459,.F.);
#614=ORIENTED_EDGE('',*,*,#460,.F.);
#615=ORIENTED_EDGE('',*,*,#461,.F.);
#616=ORIENTED_EDGE('',*,*,#462,.F.);
#617=ORIENTED_EDGE('',*,*,#463,.F.);
#618=ORIENTED_EDGE('',*,*,#380,.T.);
#619=ORIENTED_EDGE('',*,*,#377,.T.);
#620=ORIENTED_EDGE('',*,*,#374,.T.);
#621=ORIENTED_EDGE('',*,*,#370,.T.);
#622=ORIENTED_EDGE('',*,*,#392,.T.);
#623=ORIENTED_EDGE('',*,*,#389,.T.);
#624=ORIENTED_EDGE('',*,*,#386,.T.);
#625=ORIENTED_EDGE('',*,*,#383,.T.);
#626=ORIENTED_EDGE('',*,*,#457,.T.);
#627=ORIENTED_EDGE('',*,*,#464,.T.);
#628=ORIENTED_EDGE('',*,*,#401,.F.);
#629=ORIENTED_EDGE('',*,*,#465,.F.);
#630=ORIENTED_EDGE('',*,*,#458,.T.);
#631=ORIENTED_EDGE('',*,*,#465,.T.);
#632=ORIENTED_EDGE('',*,*,#400,.F.);
#633=ORIENTED_EDGE('',*,*,#466,.F.);
#634=ORIENTED_EDGE('',*,*,#459,.T.);
#635=ORIENTED_EDGE('',*,*,#466,.T.);
#636=ORIENTED_EDGE('',*,*,#399,.F.);
#637=ORIENTED_EDGE('',*,*,#467,.F.);
#638=ORIENTED_EDGE('',*,*,#460,.T.);
#639=ORIENTED_EDGE('',*,*,#467,.T.);
#640=ORIENTED_EDGE('',*,*,#398,.F.);
#641=ORIENTED_EDGE('',*,*,#468,.F.);
#642=ORIENTED_EDGE('',*,*,#461,.T.);
#643=ORIENTED_EDGE('',*,*,#468,.T.);
#644=ORIENTED_EDGE('',*,*,#397,.F.);
#645=ORIENTED_EDGE('',*,*,#469,.F.);
#646=ORIENTED_EDGE('',*,*,#462,.T.);
#647=ORIENTED_EDGE('',*,*,#469,.T.);
#648=ORIENTED_EDGE('',*,*,#396,.F.);
#649=ORIENTED_EDGE('',*,*,#470,.F.);
#650=ORIENTED_EDGE('',*,*,#463,.T.);
#651=ORIENTED_EDGE('',*,*,#470,.T.);
#652=ORIENTED_EDGE('',*,*,#395,.F.);
#653=ORIENTED_EDGE('',*,*,#471,.F.);
#654=ORIENTED_EDGE('',*,*,#456,.T.);
#655=ORIENTED_EDGE('',*,*,#471,.T.);
#656=ORIENTED_EDGE('',*,*,#394,.F.);
#657=ORIENTED_EDGE('',*,*,#464,.F.);
#658=ORIENTED_EDGE('',*,*,#411,.T.);
#659=ORIENTED_EDGE('',*,*,#415,.T.);
#660=ORIENTED_EDGE('',*,*,#428,.T.);
#661=ORIENTED_EDGE('',*,*,#447,.T.);
#662=ORIENTED_EDGE('',*,*,#449,.T.);
#663=ORIENTED_EDGE('',*,*,#451,.T.);
#664=ORIENTED_EDGE('',*,*,#453,.T.);
#665=ORIENTED_EDGE('',*,*,#455,.T.);
#666=ORIENTED_EDGE('',*,*,#443,.T.);
#667=ORIENTED_EDGE('',*,*,#446,.T.);
#668=ORIENTED_EDGE('',*,*,#425,.T.);
#669=ORIENTED_EDGE('',*,*,#430,.T.);
#670=ORIENTED_EDGE('',*,*,#436,.T.);
#671=ORIENTED_EDGE('',*,*,#434,.T.);
#672=ORIENTED_EDGE('',*,*,#432,.T.);
#673=ORIENTED_EDGE('',*,*,#438,.T.);
#674=ORIENTED_EDGE('',*,*,#440,.T.);
#675=ORIENTED_EDGE('',*,*,#442,.T.);
#676=CYLINDRICAL_SURFACE('',#743,5.4);
#677=CYLINDRICAL_SURFACE('',#747,5.4);
#678=CYLINDRICAL_SURFACE('',#751,5.4);
#679=CYLINDRICAL_SURFACE('',#755,5.4);
#680=CYLINDRICAL_SURFACE('',#768,1.6);
#681=CYLINDRICAL_SURFACE('',#779,1.6);
#682=CYLINDRICAL_SURFACE('',#785,1.75);
#683=CYLINDRICAL_SURFACE('',#787,1.75);
#684=CYLINDRICAL_SURFACE('',#790,3.3);
#685=CYLINDRICAL_SURFACE('',#792,3.3);
#686=CYLINDRICAL_SURFACE('',#795,3.3);
#687=CYLINDRICAL_SURFACE('',#798,3.3);
#688=CYLINDRICAL_SURFACE('',#805,7.5);
#689=CYLINDRICAL_SURFACE('',#807,7.5);
#690=CYLINDRICAL_SURFACE('',#809,7.5);
#691=CYLINDRICAL_SURFACE('',#811,7.5);
#692=ADVANCED_FACE('',(#47),#676,.T.);
#693=ADVANCED_FACE('',(#48),#26,.T.);
#694=ADVANCED_FACE('',(#49),#677,.T.);
#695=ADVANCED_FACE('',(#50),#27,.T.);
#696=ADVANCED_FACE('',(#51),#678,.T.);
#697=ADVANCED_FACE('',(#52),#28,.T.);
#698=ADVANCED_FACE('',(#53),#679,.T.);
#699=ADVANCED_FACE('',(#54),#29,.T.);
#700=ADVANCED_FACE('',(#55,#15,#16,#17,#18,#19),#30,.T.);
#701=ADVANCED_FACE('',(#56),#680,.F.);
#702=ADVANCED_FACE('',(#57,#20),#31,.F.);
#703=ADVANCED_FACE('',(#58),#32,.T.);
#704=ADVANCED_FACE('',(#59),#33,.T.);
#705=ADVANCED_FACE('',(#60),#681,.F.);
#706=ADVANCED_FACE('',(#61),#34,.F.);
#707=ADVANCED_FACE('',(#62),#35,.F.);
#708=ADVANCED_FACE('',(#63),#36,.F.);
#709=ADVANCED_FACE('',(#64),#37,.F.);
#710=ADVANCED_FACE('',(#65),#682,.F.);
#711=ADVANCED_FACE('',(#66),#683,.F.);
#712=ADVANCED_FACE('',(#67),#38,.T.);
#713=ADVANCED_FACE('',(#68),#684,.F.);
#714=ADVANCED_FACE('',(#69),#685,.F.);
#715=ADVANCED_FACE('',(#70),#39,.T.);
#716=ADVANCED_FACE('',(#71),#686,.F.);
#717=ADVANCED_FACE('',(#72),#40,.T.);
#718=ADVANCED_FACE('',(#73),#687,.F.);
#719=ADVANCED_FACE('',(#74,#21),#41,.F.);
#720=ADVANCED_FACE('',(#75),#688,.T.);
#721=ADVANCED_FACE('',(#76),#42,.T.);
#722=ADVANCED_FACE('',(#77),#689,.T.);
#723=ADVANCED_FACE('',(#78),#43,.T.);
#724=ADVANCED_FACE('',(#79),#690,.T.);
#725=ADVANCED_FACE('',(#80),#44,.T.);
#726=ADVANCED_FACE('',(#81),#691,.T.);
#727=ADVANCED_FACE('',(#82),#45,.T.);
#728=ADVANCED_FACE('',(#83,#22,#23,#24,#25),#46,.F.);
#729=CLOSED_SHELL('',(#692,#693,#694,#695,#696,#697,#698,#699,#700,#701,
#702,#703,#704,#705,#706,#707,#708,#709,#710,#711,#712,#713,#714,#715,#716,
#717,#718,#719,#720,#721,#722,#723,#724,#725,#726,#727,#728));
#730=DERIVED_UNIT_ELEMENT(#732,1.);
#731=DERIVED_UNIT_ELEMENT(#1239,-3.);
#732=(
MASS_UNIT()
NAMED_UNIT(*)
SI_UNIT(.KILO.,.GRAM.)
);
#733=DERIVED_UNIT((#730,#731));
#734=MEASURE_REPRESENTATION_ITEM('density measure',
POSITIVE_RATIO_MEASURE(7850.),#733);
#735=PROPERTY_DEFINITION_REPRESENTATION(#740,#737);
#736=PROPERTY_DEFINITION_REPRESENTATION(#741,#738);
#737=REPRESENTATION('material name',(#739),#1236);
#738=REPRESENTATION('density',(#734),#1236);
#739=DESCRIPTIVE_REPRESENTATION_ITEM('Steel','Steel');
#740=PROPERTY_DEFINITION('material property','material name',#1246);
#741=PROPERTY_DEFINITION('material property','density of part',#1246);
#742=AXIS2_PLACEMENT_3D('',#1026,#814,#815);
#743=AXIS2_PLACEMENT_3D('',#1027,#816,#817);
#744=AXIS2_PLACEMENT_3D('',#1030,#818,#819);
#745=AXIS2_PLACEMENT_3D('',#1034,#821,#822);
#746=AXIS2_PLACEMENT_3D('',#1036,#824,#825);
#747=AXIS2_PLACEMENT_3D('',#1042,#829,#830);
#748=AXIS2_PLACEMENT_3D('',#1044,#831,#832);
#749=AXIS2_PLACEMENT_3D('',#1047,#834,#835);
#750=AXIS2_PLACEMENT_3D('',#1048,#836,#837);
#751=AXIS2_PLACEMENT_3D('',#1054,#841,#842);
#752=AXIS2_PLACEMENT_3D('',#1056,#843,#844);
#753=AXIS2_PLACEMENT_3D('',#1059,#846,#847);
#754=AXIS2_PLACEMENT_3D('',#1060,#848,#849);
#755=AXIS2_PLACEMENT_3D('',#1066,#853,#854);
#756=AXIS2_PLACEMENT_3D('',#1068,#855,#856);
#757=AXIS2_PLACEMENT_3D('',#1071,#858,#859);
#758=AXIS2_PLACEMENT_3D('',#1072,#860,#861);
#759=AXIS2_PLACEMENT_3D('',#1075,#864,#865);
#760=AXIS2_PLACEMENT_3D('',#1080,#867,#868);
#761=AXIS2_PLACEMENT_3D('',#1084,#870,#871);
#762=AXIS2_PLACEMENT_3D('',#1088,#873,#874);
#763=AXIS2_PLACEMENT_3D('',#1091,#876,#877);
#764=AXIS2_PLACEMENT_3D('',#1093,#878,#879);
#765=AXIS2_PLACEMENT_3D('',#1095,#880,#881);
#766=AXIS2_PLACEMENT_3D('',#1105,#886,#887);
#767=AXIS2_PLACEMENT_3D('',#1107,#888,#889);
#768=AXIS2_PLACEMENT_3D('',#1108,#890,#891);
#769=AXIS2_PLACEMENT_3D('',#1112,#893,#894);
#770=AXIS2_PLACEMENT_3D('',#1116,#896,#897);
#771=AXIS2_PLACEMENT_3D('',#1119,#899,#900);
#772=AXIS2_PLACEMENT_3D('',#1120,#901,#902);
#773=AXIS2_PLACEMENT_3D('',#1124,#904,#905);
#774=AXIS2_PLACEMENT_3D('',#1128,#907,#908);
#775=AXIS2_PLACEMENT_3D('',#1132,#910,#911);
#776=AXIS2_PLACEMENT_3D('',#1136,#913,#914);
#777=AXIS2_PLACEMENT_3D('',#1138,#916,#917);
#778=AXIS2_PLACEMENT_3D('',#1142,#920,#921);
#779=AXIS2_PLACEMENT_3D('',#1146,#924,#925);
#780=AXIS2_PLACEMENT_3D('',#1149,#927,#928);
#781=AXIS2_PLACEMENT_3D('',#1150,#929,#930);
#782=AXIS2_PLACEMENT_3D('',#1156,#934,#935);
#783=AXIS2_PLACEMENT_3D('',#1160,#938,#939);
#784=AXIS2_PLACEMENT_3D('',#1164,#942,#943);
#785=AXIS2_PLACEMENT_3D('',#1166,#945,#946);
#786=AXIS2_PLACEMENT_3D('',#1169,#948,#949);
#787=AXIS2_PLACEMENT_3D('',#1170,#950,#951);
#788=AXIS2_PLACEMENT_3D('',#1173,#953,#954);
#789=AXIS2_PLACEMENT_3D('',#1174,#955,#956);
#790=AXIS2_PLACEMENT_3D('',#1180,#960,#961);
#791=AXIS2_PLACEMENT_3D('',#1181,#962,#963);
#792=AXIS2_PLACEMENT_3D('',#1182,#964,#965);
#793=AXIS2_PLACEMENT_3D('',#1184,#966,#967);
#794=AXIS2_PLACEMENT_3D('',#1186,#969,#970);
#795=AXIS2_PLACEMENT_3D('',#1190,#973,#974);
#796=AXIS2_PLACEMENT_3D('',#1192,#975,#976);
#797=AXIS2_PLACEMENT_3D('',#1194,#978,#979);
#798=AXIS2_PLACEMENT_3D('',#1198,#982,#983);
#799=AXIS2_PLACEMENT_3D('',#1199,#984,#985);
#800=AXIS2_PLACEMENT_3D('',#1200,#986,#987);
#801=AXIS2_PLACEMENT_3D('',#1205,#989,#990);
#802=AXIS2_PLACEMENT_3D('',#1209,#992,#993);
#803=AXIS2_PLACEMENT_3D('',#1213,#995,#996);
#804=AXIS2_PLACEMENT_3D('',#1216,#998,#999);
#805=AXIS2_PLACEMENT_3D('',#1217,#1000,#1001);
#806=AXIS2_PLACEMENT_3D('',#1220,#1004,#1005);
#807=AXIS2_PLACEMENT_3D('',#1222,#1007,#1008);
#808=AXIS2_PLACEMENT_3D('',#1224,#1010,#1011);
#809=AXIS2_PLACEMENT_3D('',#1226,#1013,#1014);
#810=AXIS2_PLACEMENT_3D('',#1228,#1016,#1017);
#811=AXIS2_PLACEMENT_3D('',#1230,#1019,#1020);
#812=AXIS2_PLACEMENT_3D('',#1232,#1022,#1023);
#813=AXIS2_PLACEMENT_3D('',#1233,#1024,#1025);
#814=DIRECTION('axis',(0.,0.,1.));
#815=DIRECTION('refdir',(1.,0.,0.));
#816=DIRECTION('center_axis',(0.,0.,1.));
#817=DIRECTION('ref_axis',(1.,8.22387425648264E-16,0.));
#818=DIRECTION('center_axis',(0.,0.,1.));
#819=DIRECTION('ref_axis',(1.,8.22387425648264E-16,0.));
#820=DIRECTION('',(0.,0.,1.));
#821=DIRECTION('center_axis',(0.,0.,-1.));
#822=DIRECTION('ref_axis',(1.,8.22387425648264E-16,0.));
#823=DIRECTION('',(0.,0.,1.));
#824=DIRECTION('center_axis',(1.7415263131375E-16,-1.,0.));
#825=DIRECTION('ref_axis',(1.,1.7415263131375E-16,0.));
#826=DIRECTION('',(1.,1.7415263131375E-16,0.));
#827=DIRECTION('',(0.,0.,1.));
#828=DIRECTION('',(-1.,-1.7415263131375E-16,0.));
#829=DIRECTION('center_axis',(0.,0.,1.));
#830=DIRECTION('ref_axis',(4.11193712824132E-16,-1.,0.));
#831=DIRECTION('center_axis',(0.,0.,1.));
#832=DIRECTION('ref_axis',(4.11193712824132E-16,-1.,0.));
#833=DIRECTION('',(0.,0.,1.));
#834=DIRECTION('center_axis',(0.,0.,-1.));
#835=DIRECTION('ref_axis',(4.11193712824132E-16,-1.,0.));
#836=DIRECTION('center_axis',(-1.,1.81260901979617E-16,0.));
#837=DIRECTION('ref_axis',(-1.81260901979617E-16,-1.,0.));
#838=DIRECTION('',(-1.81260901979617E-16,-1.,0.));
#839=DIRECTION('',(0.,0.,1.));
#840=DIRECTION('',(1.81260901979617E-16,1.,0.));
#841=DIRECTION('center_axis',(0.,0.,1.));
#842=DIRECTION('ref_axis',(-1.,-8.22387425648264E-16,0.));
#843=DIRECTION('center_axis',(0.,0.,1.));
#844=DIRECTION('ref_axis',(-1.,-8.22387425648264E-16,0.));
#845=DIRECTION('',(0.,0.,1.));
#846=DIRECTION('center_axis',(0.,0.,-1.));
#847=DIRECTION('ref_axis',(-1.,-8.22387425648264E-16,0.));
#848=DIRECTION('center_axis',(1.7415263131375E-16,1.,0.));
#849=DIRECTION('ref_axis',(-1.,1.7415263131375E-16,0.));
#850=DIRECTION('',(-1.,1.7415263131375E-16,0.));
#851=DIRECTION('',(0.,0.,1.));
#852=DIRECTION('',(1.,-1.7415263131375E-16,0.));
#853=DIRECTION('center_axis',(0.,0.,1.));
#854=DIRECTION('ref_axis',(-4.11193712824132E-16,1.,0.));
#855=DIRECTION('center_axis',(0.,0.,1.));
#856=DIRECTION('ref_axis',(-4.11193712824132E-16,1.,0.));
#857=DIRECTION('',(0.,0.,1.));
#858=DIRECTION('center_axis',(0.,0.,-1.));
#859=DIRECTION('ref_axis',(-4.11193712824132E-16,1.,0.));
#860=DIRECTION('center_axis',(1.,-1.35945676484713E-16,0.));
#861=DIRECTION('ref_axis',(1.35945676484713E-16,1.,0.));
#862=DIRECTION('',(1.35945676484713E-16,1.,0.));
#863=DIRECTION('',(-1.35945676484713E-16,-1.,0.));
#864=DIRECTION('center_axis',(0.,0.,1.));
#865=DIRECTION('ref_axis',(-1.,0.,0.));
#866=DIRECTION('',(-1.,0.,0.));
#867=DIRECTION('center_axis',(0.,0.,1.));
#868=DIRECTION('ref_axis',(-5.9211894646675E-16,1.,0.));
#869=DIRECTION('',(0.,-1.,0.));
#870=DIRECTION('center_axis',(0.,0.,1.));
#871=DIRECTION('ref_axis',(-1.,0.,0.));
#872=DIRECTION('',(1.,0.,0.));
#873=DIRECTION('center_axis',(0.,0.,1.));
#874=DIRECTION('ref_axis',(8.88178419700125E-16,-1.,0.));
#875=DIRECTION('',(0.,1.,0.));
#876=DIRECTION('center_axis',(0.,0.,1.));
#877=DIRECTION('ref_axis',(1.,0.,0.));
#878=DIRECTION('center_axis',(0.,0.,-1.));
#879=DIRECTION('ref_axis',(1.,0.,0.));
#880=DIRECTION('center_axis',(0.,0.,-1.));
#881=DIRECTION('ref_axis',(1.,0.,0.));
#882=DIRECTION('',(0.,1.,0.));
#883=DIRECTION('',(1.,0.,0.));
#884=DIRECTION('',(0.,-1.,0.));
#885=DIRECTION('',(-1.,0.,0.));
#886=DIRECTION('center_axis',(0.,0.,-1.));
#887=DIRECTION('ref_axis',(1.,0.,0.));
#888=DIRECTION('center_axis',(0.,0.,-1.));
#889=DIRECTION('ref_axis',(1.,0.,0.));
#890=DIRECTION('center_axis',(0.,0.,-1.));
#891=DIRECTION('ref_axis',(1.,0.,0.));
#892=DIRECTION('',(0.,0.,-1.));
#893=DIRECTION('center_axis',(0.,0.,1.));
#894=DIRECTION('ref_axis',(1.,0.,0.));
#895=DIRECTION('',(0.,0.,1.));
#896=DIRECTION('center_axis',(0.,0.,1.));
#897=DIRECTION('ref_axis',(1.,0.,0.));
#898=DIRECTION('',(0.,0.,-1.));
#899=DIRECTION('center_axis',(0.,0.,1.));
#900=DIRECTION('ref_axis',(1.,0.,0.));
#901=DIRECTION('center_axis',(0.,0.,1.));
#902=DIRECTION('ref_axis',(-1.,0.,0.));
#903=DIRECTION('',(9.06304509898087E-17,1.,0.));
#904=DIRECTION('center_axis',(0.,0.,1.));
#905=DIRECTION('ref_axis',(1.,0.,0.));
#906=DIRECTION('',(-1.,0.,0.));
#907=DIRECTION('center_axis',(0.,0.,1.));
#908=DIRECTION('ref_axis',(-2.01858731750028E-15,1.,0.));
#909=DIRECTION('',(-9.06304509898087E-17,-1.,0.));
#910=DIRECTION('center_axis',(0.,0.,1.));
#911=DIRECTION('ref_axis',(-1.,0.,0.));
#912=DIRECTION('',(1.,0.,0.));
#913=DIRECTION('center_axis',(0.,0.,1.));
#914=DIRECTION('ref_axis',(2.01858731750028E-15,-1.,0.));
#915=DIRECTION('',(9.06304509898087E-17,1.,0.));
#916=DIRECTION('center_axis',(-1.,9.06304509898087E-17,0.));
#917=DIRECTION('ref_axis',(9.06304509898087E-17,1.,0.));
#918=DIRECTION('',(-9.06304509898087E-17,-1.,0.));
#919=DIRECTION('',(0.,0.,-1.));
#920=DIRECTION('center_axis',(-1.,9.06304509898087E-17,0.));
#921=DIRECTION('ref_axis',(9.06304509898087E-17,1.,0.));
#922=DIRECTION('',(0.,0.,-1.));
#923=DIRECTION('',(-9.06304509898087E-17,-1.,0.));
#924=DIRECTION('center_axis',(0.,0.,-1.));
#925=DIRECTION('ref_axis',(1.,0.,0.));
#926=DIRECTION('',(0.,0.,-1.));
#927=DIRECTION('center_axis',(0.,0.,1.));
#928=DIRECTION('ref_axis',(1.,0.,0.));
#929=DIRECTION('center_axis',(1.,0.,0.));
#930=DIRECTION('ref_axis',(0.,1.,0.));
#931=DIRECTION('',(0.,0.,1.));
#932=DIRECTION('',(0.,1.,0.));
#933=DIRECTION('',(0.,0.,1.));
#934=DIRECTION('center_axis',(0.,-1.,0.));
#935=DIRECTION('ref_axis',(1.,0.,0.));
#936=DIRECTION('',(1.,0.,0.));
#937=DIRECTION('',(0.,0.,-1.));
#938=DIRECTION('center_axis',(-1.,0.,0.));
#939=DIRECTION('ref_axis',(0.,-1.,0.));
#940=DIRECTION('',(0.,-1.,0.));
#941=DIRECTION('',(0.,0.,1.));
#942=DIRECTION('center_axis',(0.,1.,0.));
#943=DIRECTION('ref_axis',(-1.,0.,0.));
#944=DIRECTION('',(-1.,0.,0.));
#945=DIRECTION('center_axis',(0.,0.,-1.));
#946=DIRECTION('ref_axis',(1.,0.,0.));
#947=DIRECTION('',(0.,0.,-1.));
#948=DIRECTION('center_axis',(0.,0.,1.));
#949=DIRECTION('ref_axis',(1.,0.,0.));
#950=DIRECTION('center_axis',(0.,0.,-1.));
#951=DIRECTION('ref_axis',(1.,0.,0.));
#952=DIRECTION('',(0.,0.,-1.));
#953=DIRECTION('center_axis',(0.,0.,1.));
#954=DIRECTION('ref_axis',(1.,0.,0.));
#955=DIRECTION('center_axis',(0.,-1.,0.));
#956=DIRECTION('ref_axis',(-1.,0.,0.));
#957=DIRECTION('',(1.,0.,0.));
#958=DIRECTION('',(0.,0.,-1.));
#959=DIRECTION('',(0.,0.,-1.));
#960=DIRECTION('center_axis',(0.,0.,-1.));
#961=DIRECTION('ref_axis',(1.,0.,0.));
#962=DIRECTION('center_axis',(0.,0.,-1.));
#963=DIRECTION('ref_axis',(1.,0.,0.));
#964=DIRECTION('center_axis',(0.,0.,-1.));
#965=DIRECTION('ref_axis',(2.01858731750028E-15,-1.,0.));
#966=DIRECTION('center_axis',(0.,0.,-1.));
#967=DIRECTION('ref_axis',(2.01858731750028E-15,-1.,0.));
#968=DIRECTION('',(0.,0.,-1.));
#969=DIRECTION('center_axis',(0.,1.,0.));
#970=DIRECTION('ref_axis',(1.,0.,0.));
#971=DIRECTION('',(-1.,0.,0.));
#972=DIRECTION('',(0.,0.,-1.));
#973=DIRECTION('center_axis',(0.,0.,-1.));
#974=DIRECTION('ref_axis',(-1.,0.,0.));
#975=DIRECTION('center_axis',(0.,0.,-1.));
#976=DIRECTION('ref_axis',(-1.,0.,0.));
#977=DIRECTION('',(0.,0.,-1.));
#978=DIRECTION('center_axis',(1.,-9.06304509898087E-17,0.));
#979=DIRECTION('ref_axis',(-9.06304509898087E-17,-1.,0.));
#980=DIRECTION('',(9.06304509898087E-17,1.,0.));
#981=DIRECTION('',(0.,0.,-1.));
#982=DIRECTION('center_axis',(0.,0.,-1.));
#983=DIRECTION('ref_axis',(-2.01858731750028E-15,1.,0.));
#984=DIRECTION('center_axis',(0.,0.,-1.));
#985=DIRECTION('ref_axis',(-2.01858731750028E-15,1.,0.));
#986=DIRECTION('center_axis',(0.,0.,1.));
#987=DIRECTION('ref_axis',(-1.,0.,0.));
#988=DIRECTION('',(-1.,0.,0.));
#989=DIRECTION('center_axis',(0.,0.,1.));
#990=DIRECTION('ref_axis',(1.,0.,0.));
#991=DIRECTION('',(0.,1.,0.));
#992=DIRECTION('center_axis',(0.,0.,1.));
#993=DIRECTION('ref_axis',(8.88178419700125E-16,-1.,0.));
#994=DIRECTION('',(1.,0.,0.));
#995=DIRECTION('center_axis',(0.,0.,1.));
#996=DIRECTION('ref_axis',(-1.,0.,0.));
#997=DIRECTION('',(0.,-1.,0.));
#998=DIRECTION('center_axis',(0.,0.,1.));
#999=DIRECTION('ref_axis',(-5.9211894646675E-16,1.,0.));
#1000=DIRECTION('center_axis',(0.,0.,1.));
#1001=DIRECTION('ref_axis',(1.,0.,0.));
#1002=DIRECTION('',(0.,0.,1.));
#1003=DIRECTION('',(0.,0.,1.));
#1004=DIRECTION('center_axis',(1.,0.,0.));
#1005=DIRECTION('ref_axis',(0.,1.,0.));
#1006=DIRECTION('',(0.,0.,1.));
#1007=DIRECTION('center_axis',(0.,0.,1.));
#1008=DIRECTION('ref_axis',(8.88178419700125E-16,-1.,0.));
#1009=DIRECTION('',(0.,0.,1.));
#1010=DIRECTION('center_axis',(0.,-1.,0.));
#1011=DIRECTION('ref_axis',(1.,0.,0.));
#1012=DIRECTION('',(0.,0.,1.));
#1013=DIRECTION('center_axis',(0.,0.,1.));
#1014=DIRECTION('ref_axis',(-1.,0.,0.));
#1015=DIRECTION('',(0.,0.,1.));
#1016=DIRECTION('center_axis',(-1.,0.,0.));
#1017=DIRECTION('ref_axis',(0.,-1.,0.));
#1018=DIRECTION('',(0.,0.,1.));
#1019=DIRECTION('center_axis',(0.,0.,1.));
#1020=DIRECTION('ref_axis',(-5.9211894646675E-16,1.,0.));
#1021=DIRECTION('',(0.,0.,1.));
#1022=DIRECTION('center_axis',(0.,1.,0.));
#1023=DIRECTION('ref_axis',(-1.,0.,0.));
#1024=DIRECTION('center_axis',(0.,0.,1.));
#1025=DIRECTION('ref_axis',(-1.,0.,0.));
#1026=CARTESIAN_POINT('',(0.,0.,0.));
#1027=CARTESIAN_POINT('Origin',(12.75,-24.5,17.95));
#1028=CARTESIAN_POINT('',(12.75,-29.9,19.95));
#1029=CARTESIAN_POINT('',(18.15,-24.5,19.95));
#1030=CARTESIAN_POINT('Origin',(12.75,-24.5,19.95));
#1031=CARTESIAN_POINT('',(12.75,-29.9,17.95));
#1032=CARTESIAN_POINT('',(12.75,-29.9,17.95));
#1033=CARTESIAN_POINT('',(18.15,-24.5,17.95));
#1034=CARTESIAN_POINT('Origin',(12.75,-24.5,17.95));
#1035=CARTESIAN_POINT('',(18.15,-24.5,17.95));
#1036=CARTESIAN_POINT('Origin',(-12.75,-29.9,17.95));
#1037=CARTESIAN_POINT('',(-12.75,-29.9,19.95));
#1038=CARTESIAN_POINT('',(-6.375,-29.9,19.95));
#1039=CARTESIAN_POINT('',(-12.75,-29.9,17.95));
#1040=CARTESIAN_POINT('',(-12.75,-29.9,17.95));
#1041=CARTESIAN_POINT('',(12.75,-29.9,17.95));
#1042=CARTESIAN_POINT('Origin',(-12.75,-24.5,17.95));
#1043=CARTESIAN_POINT('',(-18.15,-24.5,19.95));
#1044=CARTESIAN_POINT('Origin',(-12.75,-24.5,19.95));
#1045=CARTESIAN_POINT('',(-18.15,-24.5,17.95));
#1046=CARTESIAN_POINT('',(-18.15,-24.5,17.95));
#1047=CARTESIAN_POINT('Origin',(-12.75,-24.5,17.95));
#1048=CARTESIAN_POINT('Origin',(-18.15,24.5,17.95));
#1049=CARTESIAN_POINT('',(-18.15,24.5,19.95));
#1050=CARTESIAN_POINT('',(-18.15,12.25,19.95));
#1051=CARTESIAN_POINT('',(-18.15,24.5,17.95));
#1052=CARTESIAN_POINT('',(-18.15,24.5,17.95));
#1053=CARTESIAN_POINT('',(-18.15,-24.5,17.95));
#1054=CARTESIAN_POINT('Origin',(-12.75,24.5,17.95));
#1055=CARTESIAN_POINT('',(-12.75,29.9,19.95));
#1056=CARTESIAN_POINT('Origin',(-12.75,24.5,19.95));
#1057=CARTESIAN_POINT('',(-12.75,29.9,17.95));
#1058=CARTESIAN_POINT('',(-12.75,29.9,17.95));
#1059=CARTESIAN_POINT('Origin',(-12.75,24.5,17.95));
#1060=CARTESIAN_POINT('Origin',(12.75,29.9,17.95));
#1061=CARTESIAN_POINT('',(12.75,29.9,19.95));
#1062=CARTESIAN_POINT('',(6.375,29.9,19.95));
#1063=CARTESIAN_POINT('',(12.75,29.9,17.95));
#1064=CARTESIAN_POINT('',(12.75,29.9,17.95));
#1065=CARTESIAN_POINT('',(-12.75,29.9,17.95));
#1066=CARTESIAN_POINT('Origin',(12.75,24.5,17.95));
#1067=CARTESIAN_POINT('',(18.15,24.5,19.95));
#1068=CARTESIAN_POINT('Origin',(12.75,24.5,19.95));
#1069=CARTESIAN_POINT('',(18.15,24.5,17.95));
#1070=CARTESIAN_POINT('',(18.15,24.5,17.95));
#1071=CARTESIAN_POINT('Origin',(12.75,24.5,17.95));
#1072=CARTESIAN_POINT('Origin',(18.15,-24.5,17.95));
#1073=CARTESIAN_POINT('',(18.15,-12.25,19.95));
#1074=CARTESIAN_POINT('',(18.15,24.5,17.95));
#1075=CARTESIAN_POINT('Origin',(0.,0.,21.95));
#1076=CARTESIAN_POINT('',(12.75,32.,21.95));
#1077=CARTESIAN_POINT('',(-12.75,32.,21.95));
#1078=CARTESIAN_POINT('',(12.75,32.,21.95));
#1079=CARTESIAN_POINT('',(-20.25,24.5,21.95));
#1080=CARTESIAN_POINT('Origin',(-12.75,24.5,21.95));
#1081=CARTESIAN_POINT('',(-20.25,-24.5,21.95));
#1082=CARTESIAN_POINT('',(-20.25,24.5,21.95));
#1083=CARTESIAN_POINT('',(-12.75,-32.,21.95));
#1084=CARTESIAN_POINT('Origin',(-12.75,-24.5,21.95));
#1085=CARTESIAN_POINT('',(12.75,-32.,21.95));
#1086=CARTESIAN_POINT('',(-12.75,-32.,21.95));
#1087=CARTESIAN_POINT('',(20.25,-24.5,21.95));
#1088=CARTESIAN_POINT('Origin',(12.75,-24.5,21.95));
#1089=CARTESIAN_POINT('',(20.25,24.5,21.95));
#1090=CARTESIAN_POINT('',(20.25,-24.5,21.95));
#1091=CARTESIAN_POINT('Origin',(12.75,24.5,21.95));
#1092=CARTESIAN_POINT('',(3.71091079711914,8.94918203353882,21.95));
#1093=CARTESIAN_POINT('Origin',(5.46091079711914,8.94918203353882,21.95));
#1094=CARTESIAN_POINT('',(-6.42279642820358,8.98542404174805,21.95));
#1095=CARTESIAN_POINT('Origin',(-4.67279642820358,8.98542404174805,21.95));
#1096=CARTESIAN_POINT('',(-3.22458911843228,-7.00000010430813,21.95));
#1097=CARTESIAN_POINT('',(-3.22458911843228,-4.34952803372173,21.95));
#1098=CARTESIAN_POINT('',(-3.22458911843228,-2.17476401686086,21.95));
#1099=CARTESIAN_POINT('',(4.00000005960464,-4.34952803372173,21.95));
#1100=CARTESIAN_POINT('',(2.00000002980232,-4.34952803372173,21.95));
#1101=CARTESIAN_POINT('',(4.00000005960464,-7.00000010430813,21.95));
#1102=CARTESIAN_POINT('',(4.00000005960464,-3.50000005215406,21.95));
#1103=CARTESIAN_POINT('',(-1.61229455921614,-7.00000010430813,21.95));
#1104=CARTESIAN_POINT('',(-15.6618824958801,5.9865622242825,21.95));
#1105=CARTESIAN_POINT('Origin',(-14.0618824958801,5.9865622242825,21.95));
#1106=CARTESIAN_POINT('',(13.396885061264,5.95679104328156,21.95));
#1107=CARTESIAN_POINT('Origin',(14.996885061264,5.95679104328156,21.95));
#1108=CARTESIAN_POINT('Origin',(14.996885061264,5.95679104328156,20.95));
#1109=CARTESIAN_POINT('',(13.396885061264,5.95679104328156,19.95));
#1110=CARTESIAN_POINT('',(13.396885061264,5.95679104328156,20.95));
#1111=CARTESIAN_POINT('',(16.05,7.16134445671375,19.95));
#1112=CARTESIAN_POINT('Origin',(14.996885061264,5.95679104328156,19.95));
#1113=CARTESIAN_POINT('',(16.05,7.16134445671375,17.95));
#1114=CARTESIAN_POINT('',(16.05,7.16134445671375,20.95));
#1115=CARTESIAN_POINT('',(16.05,4.75223762984936,17.95));
#1116=CARTESIAN_POINT('Origin',(14.996885061264,5.95679104328156,17.95));
#1117=CARTESIAN_POINT('',(16.05,4.75223762984936,19.95));
#1118=CARTESIAN_POINT('',(16.05,4.75223762984936,20.95));
#1119=CARTESIAN_POINT('Origin',(14.996885061264,5.95679104328156,19.95));
#1120=CARTESIAN_POINT('Origin',(2.22044604925031E-15,0.,17.95));
#1121=CARTESIAN_POINT('',(16.05,24.5,17.95));
#1122=CARTESIAN_POINT('',(16.05,24.5,17.95));
#1123=CARTESIAN_POINT('',(12.75,27.8,17.95));
#1124=CARTESIAN_POINT('Origin',(12.75,24.5,17.95));
#1125=CARTESIAN_POINT('',(-12.75,27.8,17.95));
#1126=CARTESIAN_POINT('',(-12.75,27.8,17.95));
#1127=CARTESIAN_POINT('',(-16.05,24.5,17.95));
#1128=CARTESIAN_POINT('Origin',(-12.75,24.5,17.95));
#1129=CARTESIAN_POINT('',(-16.05,-24.5,17.95));
#1130=CARTESIAN_POINT('',(-16.05,-24.5,17.95));
#1131=CARTESIAN_POINT('',(-12.75,-27.8,17.95));
#1132=CARTESIAN_POINT('Origin',(-12.75,-24.5,17.95));
#1133=CARTESIAN_POINT('',(12.75,-27.8,17.95));
#1134=CARTESIAN_POINT('',(12.75,-27.8,17.95));
#1135=CARTESIAN_POINT('',(16.05,-24.5,17.95));
#1136=CARTESIAN_POINT('Origin',(12.75,-24.5,17.95));
#1137=CARTESIAN_POINT('',(16.05,24.5,17.95));
#1138=CARTESIAN_POINT('Origin',(16.05,-24.5,19.95));
#1139=CARTESIAN_POINT('',(16.05,24.5,19.95));
#1140=CARTESIAN_POINT('',(16.05,-12.25,19.95));
#1141=CARTESIAN_POINT('',(16.05,24.5,19.95));
#1142=CARTESIAN_POINT('Origin',(16.05,-24.5,19.95));
#1143=CARTESIAN_POINT('',(16.05,-24.5,19.95));
#1144=CARTESIAN_POINT('',(16.05,-24.5,19.95));
#1145=CARTESIAN_POINT('',(16.05,-12.25,19.95));
#1146=CARTESIAN_POINT('Origin',(-14.0618824958801,5.9865622242825,20.95));
#1147=CARTESIAN_POINT('',(-15.6618824958801,5.9865622242825,19.95));
#1148=CARTESIAN_POINT('',(-15.6618824958801,5.9865622242825,20.95));
#1149=CARTESIAN_POINT('Origin',(-14.0618824958801,5.9865622242825,19.95));
#1150=CARTESIAN_POINT('Origin',(4.00000005960464,-7.00000010430813,21.95));
#1151=CARTESIAN_POINT('',(4.00000005960464,-4.34952803372173,19.95));
#1152=CARTESIAN_POINT('',(4.00000005960464,-4.34952803372173,21.95));
#1153=CARTESIAN_POINT('',(4.00000005960464,-7.00000010430813,19.95));
#1154=CARTESIAN_POINT('',(4.00000005960464,-3.50000005215406,19.95));
#1155=CARTESIAN_POINT('',(4.00000005960464,-7.00000010430813,21.95));
#1156=CARTESIAN_POINT('Origin',(-3.22458911843228,-7.00000010430813,21.95));
#1157=CARTESIAN_POINT('',(-3.22458911843228,-7.00000010430813,19.95));
#1158=CARTESIAN_POINT('',(-1.61229455921614,-7.00000010430813,19.95));
#1159=CARTESIAN_POINT('',(-3.22458911843228,-7.00000010430813,21.95));
#1160=CARTESIAN_POINT('Origin',(-3.22458911843228,-4.34952803372173,21.95));
#1161=CARTESIAN_POINT('',(-3.22458911843228,-4.34952803372173,19.95));
#1162=CARTESIAN_POINT('',(-3.22458911843228,-2.17476401686086,19.95));
#1163=CARTESIAN_POINT('',(-3.22458911843228,-4.34952803372173,21.95));
#1164=CARTESIAN_POINT('Origin',(4.00000005960464,-4.34952803372173,21.95));
#1165=CARTESIAN_POINT('',(2.00000002980232,-4.34952803372173,19.95));
#1166=CARTESIAN_POINT('Origin',(-4.67279642820358,8.98542404174805,20.2));
#1167=CARTESIAN_POINT('',(-6.42279642820358,8.98542404174805,19.95));
#1168=CARTESIAN_POINT('',(-6.42279642820358,8.98542404174805,20.2));
#1169=CARTESIAN_POINT('Origin',(-4.67279642820358,8.98542404174805,19.95));
#1170=CARTESIAN_POINT('Origin',(5.46091079711914,8.94918203353882,20.2));
#1171=CARTESIAN_POINT('',(3.71091079711914,8.94918203353882,19.95));
#1172=CARTESIAN_POINT('',(3.71091079711914,8.94918203353882,20.2));
#1173=CARTESIAN_POINT('Origin',(5.46091079711914,8.94918203353882,19.95));
#1174=CARTESIAN_POINT('Origin',(12.75,27.8,19.95));
#1175=CARTESIAN_POINT('',(-12.75,27.8,19.95));
#1176=CARTESIAN_POINT('',(12.75,27.8,19.95));
#1177=CARTESIAN_POINT('',(6.375,27.8,19.95));
#1178=CARTESIAN_POINT('',(-12.75,27.8,19.95));
#1179=CARTESIAN_POINT('',(12.75,27.8,19.95));
#1180=CARTESIAN_POINT('Origin',(12.75,24.5,19.95));
#1181=CARTESIAN_POINT('Origin',(12.75,24.5,19.95));
#1182=CARTESIAN_POINT('Origin',(12.75,-24.5,19.95));
#1183=CARTESIAN_POINT('',(12.75,-27.8,19.95));
#1184=CARTESIAN_POINT('Origin',(12.75,-24.5,19.95));
#1185=CARTESIAN_POINT('',(12.75,-27.8,19.95));
#1186=CARTESIAN_POINT('Origin',(-12.75,-27.8,19.95));
#1187=CARTESIAN_POINT('',(-12.75,-27.8,19.95));
#1188=CARTESIAN_POINT('',(-6.375,-27.8,19.95));
#1189=CARTESIAN_POINT('',(-12.75,-27.8,19.95));
#1190=CARTESIAN_POINT('Origin',(-12.75,-24.5,19.95));
#1191=CARTESIAN_POINT('',(-16.05,-24.5,19.95));
#1192=CARTESIAN_POINT('Origin',(-12.75,-24.5,19.95));
#1193=CARTESIAN_POINT('',(-16.05,-24.5,19.95));
#1194=CARTESIAN_POINT('Origin',(-16.05,24.5,19.95));
#1195=CARTESIAN_POINT('',(-16.05,24.5,19.95));
#1196=CARTESIAN_POINT('',(-16.05,12.25,19.95));
#1197=CARTESIAN_POINT('',(-16.05,24.5,19.95));
#1198=CARTESIAN_POINT('Origin',(-12.75,24.5,19.95));
#1199=CARTESIAN_POINT('Origin',(-12.75,24.5,19.95));
#1200=CARTESIAN_POINT('Origin',(0.,0.,19.95));
#1201=CARTESIAN_POINT('',(12.75,32.,19.95));
#1202=CARTESIAN_POINT('',(-12.75,32.,19.95));
#1203=CARTESIAN_POINT('',(12.75,32.,19.95));
#1204=CARTESIAN_POINT('',(20.25,24.5,19.95));
#1205=CARTESIAN_POINT('Origin',(12.75,24.5,19.95));
#1206=CARTESIAN_POINT('',(20.25,-24.5,19.95));
#1207=CARTESIAN_POINT('',(20.25,-24.5,19.95));
#1208=CARTESIAN_POINT('',(12.75,-32.,19.95));
#1209=CARTESIAN_POINT('Origin',(12.75,-24.5,19.95));
#1210=CARTESIAN_POINT('',(-12.75,-32.,19.95));
#1211=CARTESIAN_POINT('',(-12.75,-32.,19.95));
#1212=CARTESIAN_POINT('',(-20.25,-24.5,19.95));
#1213=CARTESIAN_POINT('Origin',(-12.75,-24.5,19.95));
#1214=CARTESIAN_POINT('',(-20.25,24.5,19.95));
#1215=CARTESIAN_POINT('',(-20.25,24.5,19.95));
#1216=CARTESIAN_POINT('Origin',(-12.75,24.5,19.95));
#1217=CARTESIAN_POINT('Origin',(12.75,24.5,19.95));
#1218=CARTESIAN_POINT('',(12.75,32.,19.95));
#1219=CARTESIAN_POINT('',(20.25,24.5,19.95));
#1220=CARTESIAN_POINT('Origin',(20.25,-24.5,19.95));
#1221=CARTESIAN_POINT('',(20.25,-24.5,19.95));
#1222=CARTESIAN_POINT('Origin',(12.75,-24.5,19.95));
#1223=CARTESIAN_POINT('',(12.75,-32.,19.95));
#1224=CARTESIAN_POINT('Origin',(-12.75,-32.,19.95));
#1225=CARTESIAN_POINT('',(-12.75,-32.,19.95));
#1226=CARTESIAN_POINT('Origin',(-12.75,-24.5,19.95));
#1227=CARTESIAN_POINT('',(-20.25,-24.5,19.95));
#1228=CARTESIAN_POINT('Origin',(-20.25,24.5,19.95));
#1229=CARTESIAN_POINT('',(-20.25,24.5,19.95));
#1230=CARTESIAN_POINT('Origin',(-12.75,24.5,19.95));
#1231=CARTESIAN_POINT('',(-12.75,32.,19.95));
#1232=CARTESIAN_POINT('Origin',(12.75,32.,19.95));
#1233=CARTESIAN_POINT('Origin',(0.,0.,19.95));
#1234=UNCERTAINTY_MEASURE_WITH_UNIT(LENGTH_MEASURE(0.01),#1238,
'DISTANCE_ACCURACY_VALUE',
'Maximum model space distance between geometric entities at asserted c
onnectivities');
#1235=UNCERTAINTY_MEASURE_WITH_UNIT(LENGTH_MEASURE(0.01),#1238,
'DISTANCE_ACCURACY_VALUE',
'Maximum model space distance between geometric entities at asserted c
onnectivities');
#1236=(
GEOMETRIC_REPRESENTATION_CONTEXT(3)
GLOBAL_UNCERTAINTY_ASSIGNED_CONTEXT((#1234))
GLOBAL_UNIT_ASSIGNED_CONTEXT((#1238,#1240,#1241))
REPRESENTATION_CONTEXT('','3D')
);
#1237=(
GEOMETRIC_REPRESENTATION_CONTEXT(3)
GLOBAL_UNCERTAINTY_ASSIGNED_CONTEXT((#1235))
GLOBAL_UNIT_ASSIGNED_CONTEXT((#1238,#1240,#1241))
REPRESENTATION_CONTEXT('','3D')
);
#1238=(
LENGTH_UNIT()
NAMED_UNIT(*)
SI_UNIT(.MILLI.,.METRE.)
);
#1239=(
LENGTH_UNIT()
NAMED_UNIT(*)
SI_UNIT($,.METRE.)
);
#1240=(
NAMED_UNIT(*)
PLANE_ANGLE_UNIT()
SI_UNIT($,.RADIAN.)
);
#1241=(
NAMED_UNIT(*)
SI_UNIT($,.STERADIAN.)
SOLID_ANGLE_UNIT()
);
#1242=SHAPE_DEFINITION_REPRESENTATION(#1243,#1244);
#1243=PRODUCT_DEFINITION_SHAPE('',$,#1246);
#1244=SHAPE_REPRESENTATION('',(#742),#1236);
#1245=PRODUCT_DEFINITION_CONTEXT('part definition',#1250,'design');
#1246=PRODUCT_DEFINITION('2026-05-08-16-38-15-521','body',#1247,#1245);
#1247=PRODUCT_DEFINITION_FORMATION('',$,#1252);
#1248=PRODUCT_RELATED_PRODUCT_CATEGORY('body','body',(#1252));
#1249=APPLICATION_PROTOCOL_DEFINITION('international standard',
'automotive_design',2009,#1250);
#1250=APPLICATION_CONTEXT(
'Core Data for Automotive Mechanical Design Process');
#1251=PRODUCT_CONTEXT('part definition',#1250,'mechanical');
#1252=PRODUCT('2026-05-08-16-38-15-521','body',$,(#1251));
#1253=PRESENTATION_STYLE_ASSIGNMENT((#1254));
#1254=SURFACE_STYLE_USAGE(.BOTH.,#1255);
#1255=SURFACE_SIDE_STYLE('',(#1256));
#1256=SURFACE_STYLE_FILL_AREA(#1257);
#1257=FILL_AREA_STYLE('Steel - Satin',(#1258));
#1258=FILL_AREA_STYLE_COLOUR('Steel - Satin',#1259);
#1259=COLOUR_RGB('Steel - Satin',0.627450980392157,0.627450980392157,0.627450980392157);
ENDSEC;
END-ISO-10303-21;
